M48
; DRILL file {KiCad (6.0.4)} date Sun Apr  9 21:12:46 2023
; FORMAT={-:-/ absolute / inch / decimal}
; #@! TF.CreationDate,2023-04-09T21:12:46+08:00
; #@! TF.GenerationSoftware,Kicad,Pcbnew,(6.0.4)
; #@! TF.FileFunction,Plated,1,2,PTH
FMAT,2
INCH
; #@! TA.AperFunction,Plated,PTH,ComponentDrill
T1C0.0197
; #@! TA.AperFunction,Plated,PTH,ComponentDrill
T2C0.0315
; #@! TA.AperFunction,Plated,PTH,ComponentDrill
T3C0.0409
%
G90
G05
T1
X6.5Y-2.5
X6.5Y-2.5394
X6.5Y-2.7
X6.5Y-2.7394
X6.5Y-2.7787
X6.5Y-2.8181
X6.5Y-3.1031
X6.5Y-3.1425
X6.5Y-3.1819
X6.5Y-3.2213
X6.5Y-3.2606
X6.5Y-3.3
X6.5Y-3.3394
X6.5Y-3.3787
X6.5Y-3.4181
X6.5Y-3.4575
X6.5Y-3.4969
X6.5Y-3.5362
X6.5Y-3.5756
X6.5Y-3.615
X6.5Y-3.6543
X6.5Y-3.6937
T2
X6.4Y-4.2
X6.5Y-4.1
X6.6Y-4.2
T3
X5.2Y-2.522
X5.2Y-2.622
X5.2Y-2.722
X5.2Y-2.822
X5.2Y-2.922
X5.2Y-3.022
X5.2Y-3.122
X5.2Y-3.222
X5.2Y-3.322
X5.2Y-3.422
X5.2Y-3.522
X5.2Y-3.622
X5.2Y-3.722
X5.2Y-3.822
X5.2Y-3.922
X5.2Y-4.022
X5.2Y-4.122
X5.2Y-4.222
X5.2Y-4.322
X6.2Y-2.522
X6.2Y-2.622
X6.2Y-2.722
X6.2Y-2.822
X6.2Y-2.922
X6.2Y-3.022
X6.2Y-3.122
X6.2Y-3.222
X6.2Y-3.322
X6.2Y-3.422
X6.2Y-3.522
X6.2Y-3.622
X6.2Y-3.722
X6.2Y-3.822
X6.2Y-3.922
X6.2Y-4.022
X6.2Y-4.122
X6.2Y-4.222
X6.2Y-4.322
T0
M30
