%TF.GenerationSoftware,KiCad,Pcbnew,(6.0.4)*%
%TF.CreationDate,2023-04-09T21:12:40+08:00*%
%TF.ProjectId,KiCad,4b694361-642e-46b6-9963-61645f706362,rev?*%
%TF.SameCoordinates,Original*%
%TF.FileFunction,Copper,L1,Top*%
%TF.FilePolarity,Positive*%
%FSLAX46Y46*%
G04 Gerber Fmt 4.6, Leading zero omitted, Abs format (unit mm)*
G04 Created by KiCad (PCBNEW (6.0.4)) date 2023-04-09 21:12:40*
%MOMM*%
%LPD*%
G01*
G04 APERTURE LIST*
%TA.AperFunction,ComponentPad*%
%ADD10R,0.850000X0.850000*%
%TD*%
%TA.AperFunction,ComponentPad*%
%ADD11O,0.850000X0.850000*%
%TD*%
%TA.AperFunction,ComponentPad*%
%ADD12C,1.440000*%
%TD*%
%TA.AperFunction,ComponentPad*%
%ADD13R,1.560000X1.560000*%
%TD*%
%TA.AperFunction,ComponentPad*%
%ADD14C,1.560000*%
%TD*%
%TA.AperFunction,Conductor*%
%ADD15C,0.250000*%
%TD*%
G04 APERTURE END LIST*
D10*
%TO.P,J3,1,Pin_1*%
%TO.N,GND*%
X165100000Y-78820000D03*
D11*
%TO.P,J3,2,Pin_2*%
%TO.N,+5V*%
X165100000Y-79820000D03*
%TO.P,J3,3,Pin_3*%
%TO.N,Net-(J3-Pad3)*%
X165100000Y-80820000D03*
%TO.P,J3,4,Pin_4*%
%TO.N,Net-(J3-Pad4)*%
X165100000Y-81820000D03*
%TO.P,J3,5,Pin_5*%
%TO.N,GND*%
X165100000Y-82820000D03*
%TO.P,J3,6,Pin_6*%
%TO.N,Net-(J3-Pad6)*%
X165100000Y-83820000D03*
%TO.P,J3,7,Pin_7*%
%TO.N,unconnected-(J3-Pad7)*%
X165100000Y-84820000D03*
%TO.P,J3,8,Pin_8*%
%TO.N,unconnected-(J3-Pad8)*%
X165100000Y-85820000D03*
%TO.P,J3,9,Pin_9*%
%TO.N,unconnected-(J3-Pad9)*%
X165100000Y-86820000D03*
%TO.P,J3,10,Pin_10*%
%TO.N,unconnected-(J3-Pad10)*%
X165100000Y-87820000D03*
%TO.P,J3,11,Pin_11*%
%TO.N,Net-(J3-Pad11)*%
X165100000Y-88820000D03*
%TO.P,J3,12,Pin_12*%
%TO.N,Net-(J3-Pad12)*%
X165100000Y-89820000D03*
%TO.P,J3,13,Pin_13*%
%TO.N,Net-(J3-Pad13)*%
X165100000Y-90820000D03*
%TO.P,J3,14,Pin_14*%
%TO.N,Net-(J3-Pad14)*%
X165100000Y-91820000D03*
%TO.P,J3,15,Pin_15*%
%TO.N,+5V*%
X165100000Y-92820000D03*
%TO.P,J3,16,Pin_16*%
%TO.N,GND*%
X165100000Y-93820000D03*
%TD*%
D12*
%TO.P,RV1,1,1*%
%TO.N,GND*%
X167640000Y-106680000D03*
%TO.P,RV1,2,2*%
%TO.N,Net-(J3-Pad3)*%
X165100000Y-104140000D03*
%TO.P,RV1,3,3*%
%TO.N,+5V*%
X162560000Y-106680000D03*
%TD*%
D10*
%TO.P,J1,1,Pin_1*%
%TO.N,GND*%
X165100000Y-68580000D03*
D11*
%TO.P,J1,2,Pin_2*%
%TO.N,+5V*%
X165100000Y-69580000D03*
%TO.P,J1,3,Pin_3*%
%TO.N,GND*%
X165100000Y-70580000D03*
%TO.P,J1,4,Pin_4*%
%TO.N,Net-(U1-PadJ2-3)*%
X165100000Y-71580000D03*
%TD*%
D13*
%TO.P,U1,J2-1,3V3*%
%TO.N,unconnected-(U1-PadJ2-1)*%
X132080000Y-64060000D03*
D14*
%TO.P,U1,J2-2,EN*%
%TO.N,unconnected-(U1-PadJ2-2)*%
X132080000Y-66600000D03*
%TO.P,U1,J2-3,SENSOR_VP*%
%TO.N,Net-(U1-PadJ2-3)*%
X132080000Y-69140000D03*
%TO.P,U1,J2-4,SENSOR_VN*%
%TO.N,unconnected-(U1-PadJ2-4)*%
X132080000Y-71680000D03*
%TO.P,U1,J2-5,IO34*%
%TO.N,unconnected-(U1-PadJ2-5)*%
X132080000Y-74220000D03*
%TO.P,U1,J2-6,IO35*%
%TO.N,unconnected-(U1-PadJ2-6)*%
X132080000Y-76760000D03*
%TO.P,U1,J2-7,IO32*%
%TO.N,unconnected-(U1-PadJ2-7)*%
X132080000Y-79300000D03*
%TO.P,U1,J2-8,IO33*%
%TO.N,unconnected-(U1-PadJ2-8)*%
X132080000Y-81840000D03*
%TO.P,U1,J2-9,IO25*%
%TO.N,unconnected-(U1-PadJ2-9)*%
X132080000Y-84380000D03*
%TO.P,U1,J2-10,IO26*%
%TO.N,unconnected-(U1-PadJ2-10)*%
X132080000Y-86920000D03*
%TO.P,U1,J2-11,IO27*%
%TO.N,unconnected-(U1-PadJ2-11)*%
X132080000Y-89460000D03*
%TO.P,U1,J2-12,IO14*%
%TO.N,unconnected-(U1-PadJ2-12)*%
X132080000Y-92000000D03*
%TO.P,U1,J2-13,IO12*%
%TO.N,unconnected-(U1-PadJ2-13)*%
X132080000Y-94540000D03*
%TO.P,U1,J2-14,GND1*%
%TO.N,unconnected-(U1-PadJ2-14)*%
X132080000Y-97080000D03*
%TO.P,U1,J2-15,IO13*%
%TO.N,unconnected-(U1-PadJ2-15)*%
X132080000Y-99620000D03*
%TO.P,U1,J2-16,SD2*%
%TO.N,unconnected-(U1-PadJ2-16)*%
X132080000Y-102160000D03*
%TO.P,U1,J2-17,SD3*%
%TO.N,unconnected-(U1-PadJ2-17)*%
X132080000Y-104700000D03*
%TO.P,U1,J2-18,CMD*%
%TO.N,unconnected-(U1-PadJ2-18)*%
X132080000Y-107240000D03*
%TO.P,U1,J2-19,EXT_5V*%
%TO.N,+5V*%
X132080000Y-109780000D03*
%TO.P,U1,J3-1,GND3*%
%TO.N,GND*%
X157480000Y-64060000D03*
%TO.P,U1,J3-2,IO23*%
%TO.N,Net-(J3-Pad6)*%
X157480000Y-66600000D03*
%TO.P,U1,J3-3,IO22*%
%TO.N,unconnected-(U1-PadJ3-3)*%
X157480000Y-69140000D03*
%TO.P,U1,J3-4,TXD0*%
%TO.N,unconnected-(U1-PadJ3-4)*%
X157480000Y-71680000D03*
%TO.P,U1,J3-5,RXD0*%
%TO.N,unconnected-(U1-PadJ3-5)*%
X157480000Y-74220000D03*
%TO.P,U1,J3-6,IO21*%
%TO.N,unconnected-(U1-PadJ3-6)*%
X157480000Y-76760000D03*
%TO.P,U1,J3-7,GND2*%
%TO.N,unconnected-(U1-PadJ3-7)*%
X157480000Y-79300000D03*
%TO.P,U1,J3-8,IO19*%
%TO.N,Net-(J3-Pad4)*%
X157480000Y-81840000D03*
%TO.P,U1,J3-9,IO18*%
%TO.N,Net-(J3-Pad11)*%
X157480000Y-84380000D03*
%TO.P,U1,J3-10,IO5*%
%TO.N,unconnected-(U1-PadJ3-10)*%
X157480000Y-86920000D03*
%TO.P,U1,J3-11,IO17*%
%TO.N,Net-(J3-Pad12)*%
X157480000Y-89460000D03*
%TO.P,U1,J3-12,IO16*%
%TO.N,Net-(J3-Pad13)*%
X157480000Y-92000000D03*
%TO.P,U1,J3-13,IO4*%
%TO.N,unconnected-(U1-PadJ3-13)*%
X157480000Y-94540000D03*
%TO.P,U1,J3-14,IO0*%
%TO.N,unconnected-(U1-PadJ3-14)*%
X157480000Y-97080000D03*
%TO.P,U1,J3-15,IO2*%
%TO.N,Net-(J3-Pad14)*%
X157480000Y-99620000D03*
%TO.P,U1,J3-16,IO15*%
%TO.N,unconnected-(U1-PadJ3-16)*%
X157480000Y-102160000D03*
%TO.P,U1,J3-17,SD1*%
%TO.N,unconnected-(U1-PadJ3-17)*%
X157480000Y-104700000D03*
%TO.P,U1,J3-18,SD0*%
%TO.N,unconnected-(U1-PadJ3-18)*%
X157480000Y-107240000D03*
%TO.P,U1,J3-19,CLK*%
%TO.N,unconnected-(U1-PadJ3-19)*%
X157480000Y-109780000D03*
%TD*%
D10*
%TO.P,J2,1,Pin_1*%
%TO.N,+5V*%
X165100000Y-63500000D03*
D11*
%TO.P,J2,2,Pin_2*%
%TO.N,GND*%
X165100000Y-64500000D03*
%TD*%
D15*
%TO.N,+5V*%
X165849511Y-63574511D02*
X165775000Y-63500000D01*
X165849511Y-79671529D02*
X165849511Y-70370489D01*
X165100000Y-92820000D02*
X165701040Y-92820000D01*
X164498960Y-92820000D02*
X165100000Y-92820000D01*
X165701040Y-69580000D02*
X165849511Y-69431529D01*
X165701040Y-69580000D02*
X165100000Y-69580000D01*
X165849511Y-69728471D02*
X165701040Y-69580000D01*
X165701040Y-79820000D02*
X165100000Y-79820000D01*
X165849511Y-70370489D02*
X165849511Y-69728471D01*
X162560000Y-94758960D02*
X164498960Y-92820000D01*
X165849511Y-69431529D02*
X165849511Y-63574511D01*
X165701040Y-92820000D02*
X165849511Y-92671529D01*
X162560000Y-106680000D02*
X162560000Y-94758960D01*
X165849511Y-79671529D02*
X165701040Y-79820000D01*
X165849511Y-92671529D02*
X165849511Y-70370489D01*
X165775000Y-63500000D02*
X165100000Y-63500000D01*
%TO.N,GND*%
X157480000Y-64060000D02*
X157920000Y-64500000D01*
X165100000Y-70580000D02*
X165095489Y-70575489D01*
%TO.N,Net-(J3-Pad4)*%
X157500000Y-81820000D02*
X157480000Y-81840000D01*
%TO.N,Net-(J3-Pad12)*%
X157840000Y-89820000D02*
X157480000Y-89460000D01*
%TO.N,Net-(J3-Pad14)*%
X157480000Y-99620000D02*
X157480000Y-99189511D01*
X164849511Y-91820000D02*
X165100000Y-91820000D01*
%TD*%
%TA.AperFunction,Conductor*%
%TO.N,GND*%
G36*
X172662121Y-50820002D02*
G01*
X172708614Y-50873658D01*
X172720000Y-50926000D01*
X172720000Y-119254000D01*
X172699998Y-119322121D01*
X172646342Y-119368614D01*
X172594000Y-119380000D01*
X124586000Y-119380000D01*
X124517879Y-119359998D01*
X124471386Y-119306342D01*
X124460000Y-119254000D01*
X124460000Y-109780000D01*
X130786578Y-109780000D01*
X130806228Y-110004600D01*
X130864581Y-110222376D01*
X130959864Y-110426711D01*
X131089181Y-110611396D01*
X131248604Y-110770819D01*
X131433289Y-110900136D01*
X131438267Y-110902457D01*
X131438270Y-110902459D01*
X131632642Y-110993096D01*
X131637624Y-110995419D01*
X131642932Y-110996841D01*
X131642934Y-110996842D01*
X131850085Y-111052348D01*
X131850087Y-111052348D01*
X131855400Y-111053772D01*
X132080000Y-111073422D01*
X132304600Y-111053772D01*
X132309913Y-111052348D01*
X132309915Y-111052348D01*
X132517066Y-110996842D01*
X132517068Y-110996841D01*
X132522376Y-110995419D01*
X132527358Y-110993096D01*
X132721730Y-110902459D01*
X132721733Y-110902457D01*
X132726711Y-110900136D01*
X132911396Y-110770819D01*
X133070819Y-110611396D01*
X133200136Y-110426711D01*
X133295419Y-110222376D01*
X133353772Y-110004600D01*
X133373422Y-109780000D01*
X156186578Y-109780000D01*
X156206228Y-110004600D01*
X156264581Y-110222376D01*
X156359864Y-110426711D01*
X156489181Y-110611396D01*
X156648604Y-110770819D01*
X156833289Y-110900136D01*
X156838267Y-110902457D01*
X156838270Y-110902459D01*
X157032642Y-110993096D01*
X157037624Y-110995419D01*
X157042932Y-110996841D01*
X157042934Y-110996842D01*
X157250085Y-111052348D01*
X157250087Y-111052348D01*
X157255400Y-111053772D01*
X157480000Y-111073422D01*
X157704600Y-111053772D01*
X157709913Y-111052348D01*
X157709915Y-111052348D01*
X157917066Y-110996842D01*
X157917068Y-110996841D01*
X157922376Y-110995419D01*
X157927358Y-110993096D01*
X158121730Y-110902459D01*
X158121733Y-110902457D01*
X158126711Y-110900136D01*
X158311396Y-110770819D01*
X158470819Y-110611396D01*
X158600136Y-110426711D01*
X158695419Y-110222376D01*
X158753772Y-110004600D01*
X158773422Y-109780000D01*
X158753772Y-109555400D01*
X158695419Y-109337624D01*
X158600136Y-109133289D01*
X158470819Y-108948604D01*
X158311396Y-108789181D01*
X158126711Y-108659864D01*
X158121733Y-108657543D01*
X158121730Y-108657541D01*
X158050219Y-108624195D01*
X157996934Y-108577277D01*
X157977473Y-108509000D01*
X157998015Y-108441040D01*
X158050219Y-108395805D01*
X158121730Y-108362459D01*
X158121733Y-108362457D01*
X158126711Y-108360136D01*
X158311396Y-108230819D01*
X158470819Y-108071396D01*
X158600136Y-107886711D01*
X158621804Y-107840245D01*
X158693096Y-107687358D01*
X158693097Y-107687357D01*
X158695419Y-107682376D01*
X158710879Y-107624681D01*
X158752348Y-107469915D01*
X158752348Y-107469913D01*
X158753772Y-107464600D01*
X158773422Y-107240000D01*
X158753772Y-107015400D01*
X158695419Y-106797624D01*
X158640570Y-106680000D01*
X161326807Y-106680000D01*
X161345542Y-106894142D01*
X161346966Y-106899455D01*
X161346966Y-106899457D01*
X161379502Y-107020880D01*
X161401178Y-107101777D01*
X161403500Y-107106757D01*
X161403501Y-107106759D01*
X161465633Y-107240000D01*
X161492024Y-107296596D01*
X161615319Y-107472681D01*
X161767319Y-107624681D01*
X161943403Y-107747976D01*
X161948381Y-107750297D01*
X161948384Y-107750299D01*
X162132231Y-107836028D01*
X162138223Y-107838822D01*
X162143531Y-107840244D01*
X162143533Y-107840245D01*
X162340543Y-107893034D01*
X162340545Y-107893034D01*
X162345858Y-107894458D01*
X162560000Y-107913193D01*
X162774142Y-107894458D01*
X162779455Y-107893034D01*
X162779457Y-107893034D01*
X162976467Y-107840245D01*
X162976469Y-107840244D01*
X162981777Y-107838822D01*
X162987769Y-107836028D01*
X163171616Y-107750299D01*
X163171619Y-107750297D01*
X163176597Y-107747976D01*
X163232802Y-107708621D01*
X166975933Y-107708621D01*
X166985227Y-107720635D01*
X167019146Y-107744385D01*
X167028641Y-107749868D01*
X167213413Y-107836028D01*
X167223705Y-107839774D01*
X167420632Y-107892540D01*
X167431425Y-107894443D01*
X167634525Y-107912212D01*
X167645475Y-107912212D01*
X167848575Y-107894443D01*
X167859368Y-107892540D01*
X168056295Y-107839774D01*
X168066587Y-107836028D01*
X168251359Y-107749868D01*
X168260854Y-107744385D01*
X168295607Y-107720051D01*
X168303983Y-107709572D01*
X168296916Y-107696127D01*
X167652811Y-107052021D01*
X167638868Y-107044408D01*
X167637034Y-107044539D01*
X167630420Y-107048790D01*
X166982360Y-107696851D01*
X166975933Y-107708621D01*
X163232802Y-107708621D01*
X163352681Y-107624681D01*
X163504681Y-107472681D01*
X163627976Y-107296596D01*
X163654368Y-107240000D01*
X163716499Y-107106759D01*
X163716500Y-107106757D01*
X163718822Y-107101777D01*
X163740499Y-107020880D01*
X163773034Y-106899457D01*
X163773034Y-106899455D01*
X163774458Y-106894142D01*
X163792714Y-106685475D01*
X166407788Y-106685475D01*
X166425557Y-106888575D01*
X166427460Y-106899368D01*
X166480226Y-107096295D01*
X166483972Y-107106587D01*
X166570135Y-107291364D01*
X166575613Y-107300850D01*
X166599949Y-107335607D01*
X166610428Y-107343983D01*
X166623872Y-107336917D01*
X167267979Y-106692811D01*
X167274356Y-106681132D01*
X168004408Y-106681132D01*
X168004539Y-106682966D01*
X168008790Y-106689580D01*
X168656851Y-107337640D01*
X168668621Y-107344067D01*
X168680635Y-107334772D01*
X168704387Y-107300850D01*
X168709865Y-107291364D01*
X168796028Y-107106587D01*
X168799774Y-107096295D01*
X168852540Y-106899368D01*
X168854443Y-106888575D01*
X168872212Y-106685475D01*
X168872212Y-106674525D01*
X168854443Y-106471425D01*
X168852540Y-106460632D01*
X168799774Y-106263705D01*
X168796028Y-106253413D01*
X168709865Y-106068636D01*
X168704387Y-106059150D01*
X168680051Y-106024393D01*
X168669572Y-106016017D01*
X168656128Y-106023083D01*
X168012021Y-106667189D01*
X168004408Y-106681132D01*
X167274356Y-106681132D01*
X167275592Y-106678868D01*
X167275461Y-106677034D01*
X167271210Y-106670420D01*
X166623149Y-106022360D01*
X166611379Y-106015933D01*
X166599365Y-106025228D01*
X166575613Y-106059150D01*
X166570135Y-106068636D01*
X166483972Y-106253413D01*
X166480226Y-106263705D01*
X166427460Y-106460632D01*
X166425557Y-106471425D01*
X166407788Y-106674525D01*
X166407788Y-106685475D01*
X163792714Y-106685475D01*
X163793193Y-106680000D01*
X163774458Y-106465858D01*
X163718822Y-106258223D01*
X163627976Y-106063404D01*
X163504681Y-105887319D01*
X163352681Y-105735319D01*
X163247230Y-105661482D01*
X163238394Y-105650428D01*
X166976017Y-105650428D01*
X166983083Y-105663872D01*
X167627189Y-106307979D01*
X167641132Y-106315592D01*
X167642966Y-106315461D01*
X167649580Y-106311210D01*
X168297640Y-105663149D01*
X168304067Y-105651379D01*
X168294773Y-105639365D01*
X168260854Y-105615615D01*
X168251359Y-105610132D01*
X168066587Y-105523972D01*
X168056295Y-105520226D01*
X167859368Y-105467460D01*
X167848575Y-105465557D01*
X167645475Y-105447788D01*
X167634525Y-105447788D01*
X167431425Y-105465557D01*
X167420632Y-105467460D01*
X167223705Y-105520226D01*
X167213413Y-105523972D01*
X167028636Y-105610135D01*
X167019150Y-105615613D01*
X166984393Y-105639949D01*
X166976017Y-105650428D01*
X163238394Y-105650428D01*
X163202901Y-105606025D01*
X163193500Y-105558269D01*
X163193500Y-104140000D01*
X163866807Y-104140000D01*
X163885542Y-104354142D01*
X163886966Y-104359455D01*
X163886966Y-104359457D01*
X163919502Y-104480880D01*
X163941178Y-104561777D01*
X163943500Y-104566757D01*
X163943501Y-104566759D01*
X164005633Y-104700000D01*
X164032024Y-104756596D01*
X164155319Y-104932681D01*
X164307319Y-105084681D01*
X164483403Y-105207976D01*
X164488381Y-105210297D01*
X164488384Y-105210299D01*
X164673241Y-105296499D01*
X164678223Y-105298822D01*
X164683531Y-105300244D01*
X164683533Y-105300245D01*
X164880543Y-105353034D01*
X164880545Y-105353034D01*
X164885858Y-105354458D01*
X165100000Y-105373193D01*
X165314142Y-105354458D01*
X165319455Y-105353034D01*
X165319457Y-105353034D01*
X165516467Y-105300245D01*
X165516469Y-105300244D01*
X165521777Y-105298822D01*
X165526759Y-105296499D01*
X165711616Y-105210299D01*
X165711619Y-105210297D01*
X165716597Y-105207976D01*
X165892681Y-105084681D01*
X166044681Y-104932681D01*
X166167976Y-104756596D01*
X166194368Y-104700000D01*
X166256499Y-104566759D01*
X166256500Y-104566757D01*
X166258822Y-104561777D01*
X166280499Y-104480880D01*
X166313034Y-104359457D01*
X166313034Y-104359455D01*
X166314458Y-104354142D01*
X166333193Y-104140000D01*
X166314458Y-103925858D01*
X166258822Y-103718223D01*
X166167976Y-103523404D01*
X166044681Y-103347319D01*
X165892681Y-103195319D01*
X165716597Y-103072024D01*
X165711619Y-103069703D01*
X165711616Y-103069701D01*
X165526759Y-102983501D01*
X165526758Y-102983500D01*
X165521777Y-102981178D01*
X165516469Y-102979756D01*
X165516467Y-102979755D01*
X165319457Y-102926966D01*
X165319455Y-102926966D01*
X165314142Y-102925542D01*
X165100000Y-102906807D01*
X164885858Y-102925542D01*
X164880545Y-102926966D01*
X164880543Y-102926966D01*
X164683533Y-102979755D01*
X164683531Y-102979756D01*
X164678223Y-102981178D01*
X164673243Y-102983500D01*
X164673241Y-102983501D01*
X164488385Y-103069701D01*
X164488382Y-103069703D01*
X164483404Y-103072024D01*
X164307319Y-103195319D01*
X164155319Y-103347319D01*
X164032024Y-103523404D01*
X163941178Y-103718223D01*
X163885542Y-103925858D01*
X163866807Y-104140000D01*
X163193500Y-104140000D01*
X163193500Y-95073554D01*
X163213502Y-95005433D01*
X163230405Y-94984459D01*
X164043098Y-94171766D01*
X164105410Y-94137740D01*
X164176225Y-94142805D01*
X164233061Y-94185352D01*
X164242682Y-94201741D01*
X164242967Y-94201576D01*
X164337730Y-94365709D01*
X164345446Y-94376328D01*
X164467843Y-94512265D01*
X164477606Y-94521056D01*
X164625588Y-94628571D01*
X164636960Y-94635137D01*
X164804068Y-94709538D01*
X164816556Y-94713595D01*
X164828280Y-94716088D01*
X164842341Y-94715015D01*
X164846000Y-94705059D01*
X164846000Y-94701739D01*
X165354000Y-94701739D01*
X165357973Y-94715270D01*
X165368468Y-94716779D01*
X165383444Y-94713595D01*
X165395932Y-94709538D01*
X165563040Y-94635137D01*
X165574412Y-94628571D01*
X165722394Y-94521056D01*
X165732157Y-94512265D01*
X165854554Y-94376328D01*
X165862270Y-94365709D01*
X165953733Y-94207291D01*
X165959073Y-94195296D01*
X165992885Y-94091232D01*
X165993288Y-94077132D01*
X165986917Y-94074000D01*
X165372115Y-94074000D01*
X165356876Y-94078475D01*
X165355671Y-94079865D01*
X165354000Y-94087548D01*
X165354000Y-94701739D01*
X164846000Y-94701739D01*
X164846000Y-93875963D01*
X164866002Y-93807842D01*
X164919658Y-93761349D01*
X164989932Y-93751245D01*
X164994113Y-93751989D01*
X164995425Y-93752127D01*
X165001885Y-93753500D01*
X165198115Y-93753500D01*
X165204568Y-93752128D01*
X165204572Y-93752128D01*
X165294086Y-93733101D01*
X165390056Y-93712702D01*
X165396087Y-93710017D01*
X165563291Y-93635573D01*
X165563293Y-93635572D01*
X165569321Y-93632888D01*
X165628263Y-93590064D01*
X165695131Y-93566206D01*
X165702324Y-93566000D01*
X165980369Y-93566000D01*
X165993900Y-93562027D01*
X165994910Y-93555000D01*
X165979705Y-93508203D01*
X165977678Y-93437236D01*
X166014341Y-93376438D01*
X166025478Y-93367331D01*
X166044427Y-93353564D01*
X166054347Y-93347048D01*
X166085575Y-93328580D01*
X166085578Y-93328578D01*
X166092402Y-93324542D01*
X166106723Y-93310221D01*
X166121757Y-93297380D01*
X166131734Y-93290131D01*
X166138147Y-93285472D01*
X166166338Y-93251395D01*
X166174328Y-93242616D01*
X166241758Y-93175186D01*
X166250048Y-93167642D01*
X166256529Y-93163529D01*
X166303170Y-93113861D01*
X166305924Y-93111020D01*
X166325646Y-93091298D01*
X166328130Y-93088096D01*
X166335828Y-93079084D01*
X166360672Y-93052627D01*
X166366097Y-93046850D01*
X166375858Y-93029095D01*
X166386709Y-93012576D01*
X166399125Y-92996570D01*
X166416685Y-92955992D01*
X166421902Y-92945342D01*
X166443206Y-92906589D01*
X166448244Y-92886966D01*
X166454648Y-92868263D01*
X166459544Y-92856949D01*
X166459544Y-92856948D01*
X166462692Y-92849674D01*
X166463931Y-92841851D01*
X166463934Y-92841841D01*
X166469610Y-92806005D01*
X166472016Y-92794385D01*
X166481039Y-92759240D01*
X166481039Y-92759239D01*
X166483011Y-92751559D01*
X166483011Y-92731305D01*
X166484562Y-92711594D01*
X166486491Y-92699415D01*
X166487731Y-92691586D01*
X166483570Y-92647567D01*
X166483011Y-92635710D01*
X166483011Y-79731305D01*
X166484562Y-79711594D01*
X166486491Y-79699415D01*
X166487731Y-79691586D01*
X166483570Y-79647567D01*
X166483011Y-79635710D01*
X166483011Y-69807239D01*
X166483538Y-69796056D01*
X166485213Y-69788563D01*
X166483073Y-69720472D01*
X166483011Y-69716515D01*
X166483011Y-69688615D01*
X166482507Y-69684624D01*
X166481574Y-69672782D01*
X166480434Y-69636507D01*
X166480185Y-69628582D01*
X166477972Y-69620964D01*
X166475353Y-69611949D01*
X166474307Y-69545460D01*
X166481040Y-69519238D01*
X166481041Y-69519234D01*
X166483011Y-69511559D01*
X166483011Y-69491305D01*
X166484562Y-69471594D01*
X166486491Y-69459415D01*
X166487731Y-69451586D01*
X166483570Y-69407567D01*
X166483011Y-69395710D01*
X166483011Y-63653274D01*
X166483538Y-63642090D01*
X166485212Y-63634602D01*
X166483073Y-63566543D01*
X166483011Y-63562586D01*
X166483011Y-63534655D01*
X166482505Y-63530649D01*
X166481572Y-63518803D01*
X166480433Y-63482548D01*
X166480184Y-63474621D01*
X166474533Y-63455169D01*
X166470525Y-63435817D01*
X166468979Y-63423579D01*
X166468978Y-63423577D01*
X166467985Y-63415714D01*
X166451705Y-63374597D01*
X166447870Y-63363396D01*
X166435529Y-63320917D01*
X166431496Y-63314098D01*
X166431494Y-63314093D01*
X166425218Y-63303482D01*
X166416521Y-63285732D01*
X166409063Y-63266894D01*
X166383082Y-63231134D01*
X166376564Y-63221212D01*
X166358089Y-63189971D01*
X166358085Y-63189966D01*
X166354053Y-63183148D01*
X166339729Y-63168824D01*
X166326887Y-63153789D01*
X166314983Y-63137404D01*
X166284482Y-63112171D01*
X166269965Y-63097654D01*
X166267000Y-63092982D01*
X166217348Y-63046356D01*
X166214507Y-63043602D01*
X166194770Y-63023865D01*
X166191573Y-63021385D01*
X166182551Y-63013680D01*
X166156100Y-62988841D01*
X166150321Y-62983414D01*
X166143375Y-62979595D01*
X166143372Y-62979593D01*
X166132566Y-62973652D01*
X166116047Y-62962801D01*
X166108935Y-62957285D01*
X166100041Y-62950386D01*
X166092772Y-62947241D01*
X166092768Y-62947238D01*
X166059463Y-62932826D01*
X166048803Y-62927604D01*
X166044401Y-62925184D01*
X165994345Y-62874835D01*
X165987127Y-62859003D01*
X165978767Y-62836703D01*
X165975615Y-62828295D01*
X165888261Y-62711739D01*
X165771705Y-62624385D01*
X165635316Y-62573255D01*
X165573134Y-62566500D01*
X164626866Y-62566500D01*
X164564684Y-62573255D01*
X164428295Y-62624385D01*
X164311739Y-62711739D01*
X164224385Y-62828295D01*
X164173255Y-62964684D01*
X164166500Y-63026866D01*
X164166500Y-63973134D01*
X164173255Y-64035316D01*
X164182085Y-64058868D01*
X164209598Y-64132260D01*
X164214781Y-64203067D01*
X164211450Y-64215425D01*
X164207114Y-64228770D01*
X164206712Y-64242866D01*
X164213085Y-64246000D01*
X164219087Y-64246000D01*
X164287208Y-64266002D01*
X164307028Y-64281975D01*
X164311739Y-64288261D01*
X164428295Y-64375615D01*
X164564684Y-64426745D01*
X164626866Y-64433500D01*
X165090011Y-64433500D01*
X165158132Y-64453502D01*
X165204625Y-64507158D01*
X165216011Y-64559500D01*
X165216011Y-68520500D01*
X165196009Y-68588621D01*
X165142353Y-68635114D01*
X165090011Y-68646500D01*
X165001885Y-68646500D01*
X164995432Y-68647872D01*
X164995428Y-68647872D01*
X164905914Y-68666899D01*
X164809944Y-68687298D01*
X164803914Y-68689983D01*
X164803913Y-68689983D01*
X164636709Y-68764427D01*
X164636707Y-68764428D01*
X164630679Y-68767112D01*
X164625338Y-68770992D01*
X164625337Y-68770993D01*
X164571737Y-68809936D01*
X164504869Y-68833794D01*
X164497676Y-68834000D01*
X164185116Y-68834000D01*
X164169877Y-68838475D01*
X164168672Y-68839865D01*
X164167001Y-68847548D01*
X164167001Y-69049669D01*
X164167371Y-69056490D01*
X164172895Y-69107352D01*
X164176521Y-69122603D01*
X164209565Y-69210747D01*
X164214748Y-69281554D01*
X164211420Y-69293900D01*
X164181870Y-69384845D01*
X164161358Y-69580000D01*
X164181870Y-69775155D01*
X164183910Y-69781433D01*
X164183910Y-69781434D01*
X164188441Y-69795379D01*
X164242508Y-69961780D01*
X164245811Y-69967502D01*
X164245812Y-69967503D01*
X164274678Y-70017500D01*
X164291416Y-70086495D01*
X164274678Y-70143501D01*
X164246266Y-70192712D01*
X164240927Y-70204704D01*
X164207115Y-70308768D01*
X164206712Y-70322868D01*
X164213083Y-70326000D01*
X164497676Y-70326000D01*
X164565797Y-70346002D01*
X164571736Y-70350063D01*
X164630679Y-70392888D01*
X164636707Y-70395572D01*
X164636709Y-70395573D01*
X164792405Y-70464893D01*
X164846501Y-70510873D01*
X164867150Y-70578800D01*
X164847798Y-70647109D01*
X164792405Y-70695107D01*
X164636709Y-70764427D01*
X164636707Y-70764428D01*
X164630679Y-70767112D01*
X164625338Y-70770992D01*
X164625337Y-70770993D01*
X164571737Y-70809936D01*
X164504869Y-70833794D01*
X164497676Y-70834000D01*
X164219631Y-70834000D01*
X164206100Y-70837973D01*
X164205090Y-70845000D01*
X164240927Y-70955296D01*
X164246266Y-70967288D01*
X164274678Y-71016499D01*
X164291416Y-71085494D01*
X164274678Y-71142500D01*
X164242508Y-71198220D01*
X164181870Y-71384845D01*
X164161358Y-71580000D01*
X164181870Y-71775155D01*
X164242508Y-71961780D01*
X164340623Y-72131720D01*
X164471926Y-72277547D01*
X164477268Y-72281428D01*
X164477270Y-72281430D01*
X164539594Y-72326711D01*
X164630679Y-72392888D01*
X164636707Y-72395572D01*
X164636709Y-72395573D01*
X164803913Y-72470017D01*
X164809944Y-72472702D01*
X164905915Y-72493101D01*
X164995428Y-72512128D01*
X164995432Y-72512128D01*
X165001885Y-72513500D01*
X165090011Y-72513500D01*
X165158132Y-72533502D01*
X165204625Y-72587158D01*
X165216011Y-72639500D01*
X165216011Y-78760500D01*
X165196009Y-78828621D01*
X165142353Y-78875114D01*
X165090011Y-78886500D01*
X165001885Y-78886500D01*
X164995432Y-78887872D01*
X164995428Y-78887872D01*
X164905914Y-78906899D01*
X164809944Y-78927298D01*
X164803914Y-78929983D01*
X164803913Y-78929983D01*
X164636709Y-79004427D01*
X164636707Y-79004428D01*
X164630679Y-79007112D01*
X164625338Y-79010992D01*
X164625337Y-79010993D01*
X164571737Y-79049936D01*
X164504869Y-79073794D01*
X164497676Y-79074000D01*
X164185116Y-79074000D01*
X164169877Y-79078475D01*
X164168672Y-79079865D01*
X164167001Y-79087548D01*
X164167001Y-79289669D01*
X164167371Y-79296490D01*
X164172895Y-79347352D01*
X164176521Y-79362603D01*
X164209565Y-79450747D01*
X164214748Y-79521554D01*
X164211420Y-79533900D01*
X164181870Y-79624845D01*
X164161358Y-79820000D01*
X164181870Y-80015155D01*
X164242508Y-80201780D01*
X164245811Y-80207502D01*
X164245812Y-80207503D01*
X164274389Y-80257000D01*
X164291127Y-80325996D01*
X164274389Y-80383000D01*
X164251608Y-80422459D01*
X164242508Y-80438220D01*
X164181870Y-80624845D01*
X164161358Y-80820000D01*
X164181870Y-81015155D01*
X164242508Y-81201780D01*
X164245811Y-81207502D01*
X164245812Y-81207503D01*
X164274389Y-81257000D01*
X164291127Y-81325996D01*
X164274389Y-81383000D01*
X164242508Y-81438220D01*
X164181870Y-81624845D01*
X164161358Y-81820000D01*
X164181870Y-82015155D01*
X164183910Y-82021433D01*
X164183910Y-82021434D01*
X164217255Y-82124059D01*
X164242508Y-82201780D01*
X164245811Y-82207502D01*
X164245812Y-82207503D01*
X164274678Y-82257500D01*
X164291416Y-82326495D01*
X164274678Y-82383501D01*
X164246266Y-82432712D01*
X164240927Y-82444704D01*
X164207115Y-82548768D01*
X164206712Y-82562868D01*
X164213083Y-82566000D01*
X164497676Y-82566000D01*
X164565797Y-82586002D01*
X164571736Y-82590063D01*
X164630679Y-82632888D01*
X164636707Y-82635572D01*
X164636709Y-82635573D01*
X164792405Y-82704893D01*
X164846501Y-82750873D01*
X164867150Y-82818800D01*
X164847798Y-82887109D01*
X164792405Y-82935107D01*
X164636709Y-83004427D01*
X164636707Y-83004428D01*
X164630679Y-83007112D01*
X164625338Y-83010992D01*
X164625337Y-83010993D01*
X164571737Y-83049936D01*
X164504869Y-83073794D01*
X164497676Y-83074000D01*
X164219631Y-83074000D01*
X164206100Y-83077973D01*
X164205090Y-83085000D01*
X164240927Y-83195296D01*
X164246266Y-83207288D01*
X164274678Y-83256499D01*
X164291416Y-83325494D01*
X164274678Y-83382500D01*
X164242508Y-83438220D01*
X164181870Y-83624845D01*
X164161358Y-83820000D01*
X164181870Y-84015155D01*
X164242508Y-84201780D01*
X164245811Y-84207502D01*
X164245812Y-84207503D01*
X164274389Y-84257000D01*
X164291127Y-84325996D01*
X164274389Y-84383000D01*
X164242508Y-84438220D01*
X164240466Y-84444505D01*
X164190229Y-84599120D01*
X164181870Y-84624845D01*
X164161358Y-84820000D01*
X164181870Y-85015155D01*
X164183910Y-85021433D01*
X164183910Y-85021434D01*
X164217255Y-85124059D01*
X164242508Y-85201780D01*
X164245811Y-85207502D01*
X164245812Y-85207503D01*
X164274389Y-85257000D01*
X164291127Y-85325996D01*
X164274389Y-85383000D01*
X164242508Y-85438220D01*
X164181870Y-85624845D01*
X164161358Y-85820000D01*
X164181870Y-86015155D01*
X164242508Y-86201780D01*
X164245811Y-86207502D01*
X164245812Y-86207503D01*
X164274389Y-86257000D01*
X164291127Y-86325996D01*
X164274389Y-86383000D01*
X164242508Y-86438220D01*
X164181870Y-86624845D01*
X164161358Y-86820000D01*
X164181870Y-87015155D01*
X164242508Y-87201780D01*
X164245811Y-87207502D01*
X164245812Y-87207503D01*
X164274389Y-87257000D01*
X164291127Y-87325996D01*
X164274389Y-87383000D01*
X164242508Y-87438220D01*
X164181870Y-87624845D01*
X164161358Y-87820000D01*
X164181870Y-88015155D01*
X164183910Y-88021433D01*
X164183910Y-88021434D01*
X164201576Y-88075805D01*
X164242508Y-88201780D01*
X164245811Y-88207502D01*
X164245812Y-88207503D01*
X164274389Y-88257000D01*
X164291127Y-88325996D01*
X164274389Y-88383000D01*
X164242508Y-88438220D01*
X164181870Y-88624845D01*
X164161358Y-88820000D01*
X164181870Y-89015155D01*
X164183910Y-89021433D01*
X164183910Y-89021434D01*
X164217255Y-89124059D01*
X164242508Y-89201780D01*
X164245811Y-89207502D01*
X164245812Y-89207503D01*
X164274389Y-89257000D01*
X164291127Y-89325996D01*
X164274389Y-89383000D01*
X164242508Y-89438220D01*
X164181870Y-89624845D01*
X164161358Y-89820000D01*
X164181870Y-90015155D01*
X164242508Y-90201780D01*
X164245811Y-90207502D01*
X164245812Y-90207503D01*
X164274389Y-90257000D01*
X164291127Y-90325996D01*
X164274389Y-90383000D01*
X164242508Y-90438220D01*
X164181870Y-90624845D01*
X164161358Y-90820000D01*
X164181870Y-91015155D01*
X164242508Y-91201780D01*
X164245811Y-91207502D01*
X164245812Y-91207503D01*
X164274389Y-91257000D01*
X164291127Y-91325996D01*
X164274389Y-91383000D01*
X164242508Y-91438220D01*
X164181870Y-91624845D01*
X164161358Y-91820000D01*
X164162048Y-91826565D01*
X164180853Y-92005475D01*
X164181870Y-92015155D01*
X164183910Y-92021433D01*
X164183910Y-92021434D01*
X164219869Y-92132106D01*
X164221896Y-92203074D01*
X164185234Y-92263872D01*
X164174095Y-92272979D01*
X164155571Y-92286437D01*
X164145655Y-92292951D01*
X164107598Y-92315458D01*
X164093277Y-92329779D01*
X164078244Y-92342619D01*
X164061853Y-92354528D01*
X164056802Y-92360634D01*
X164033662Y-92388605D01*
X164025672Y-92397384D01*
X162167747Y-94255308D01*
X162159461Y-94262848D01*
X162152982Y-94266960D01*
X162147557Y-94272737D01*
X162106357Y-94316611D01*
X162103602Y-94319453D01*
X162083865Y-94339190D01*
X162081385Y-94342387D01*
X162073682Y-94351407D01*
X162043414Y-94383639D01*
X162039595Y-94390585D01*
X162039593Y-94390588D01*
X162033652Y-94401394D01*
X162022801Y-94417913D01*
X162010386Y-94433919D01*
X162007241Y-94441188D01*
X162007238Y-94441192D01*
X161992826Y-94474497D01*
X161987609Y-94485147D01*
X161966305Y-94523900D01*
X161964334Y-94531575D01*
X161964334Y-94531576D01*
X161961267Y-94543522D01*
X161954863Y-94562226D01*
X161946819Y-94580815D01*
X161945580Y-94588638D01*
X161945577Y-94588648D01*
X161939901Y-94624484D01*
X161937495Y-94636104D01*
X161926500Y-94678930D01*
X161926500Y-94699184D01*
X161924949Y-94718894D01*
X161921780Y-94738903D01*
X161922526Y-94746795D01*
X161925941Y-94782921D01*
X161926500Y-94794779D01*
X161926500Y-105558269D01*
X161906498Y-105626390D01*
X161872770Y-105661482D01*
X161767319Y-105735319D01*
X161615319Y-105887319D01*
X161492024Y-106063404D01*
X161401178Y-106258223D01*
X161345542Y-106465858D01*
X161326807Y-106680000D01*
X158640570Y-106680000D01*
X158600136Y-106593289D01*
X158470819Y-106408604D01*
X158311396Y-106249181D01*
X158126711Y-106119864D01*
X158121733Y-106117543D01*
X158121730Y-106117541D01*
X158050219Y-106084195D01*
X157996934Y-106037277D01*
X157977473Y-105969000D01*
X157998015Y-105901040D01*
X158050219Y-105855805D01*
X158121730Y-105822459D01*
X158121733Y-105822457D01*
X158126711Y-105820136D01*
X158311396Y-105690819D01*
X158470819Y-105531396D01*
X158600136Y-105346711D01*
X158621804Y-105300245D01*
X158693096Y-105147358D01*
X158693097Y-105147357D01*
X158695419Y-105142376D01*
X158710879Y-105084681D01*
X158752348Y-104929915D01*
X158752348Y-104929913D01*
X158753772Y-104924600D01*
X158773422Y-104700000D01*
X158753772Y-104475400D01*
X158695419Y-104257624D01*
X158600136Y-104053289D01*
X158470819Y-103868604D01*
X158311396Y-103709181D01*
X158126711Y-103579864D01*
X158121733Y-103577543D01*
X158121730Y-103577541D01*
X158050219Y-103544195D01*
X157996934Y-103497277D01*
X157977473Y-103429000D01*
X157998015Y-103361040D01*
X158050219Y-103315805D01*
X158121730Y-103282459D01*
X158121733Y-103282457D01*
X158126711Y-103280136D01*
X158311396Y-103150819D01*
X158470819Y-102991396D01*
X158600136Y-102806711D01*
X158695419Y-102602376D01*
X158753772Y-102384600D01*
X158773422Y-102160000D01*
X158753772Y-101935400D01*
X158695419Y-101717624D01*
X158600136Y-101513289D01*
X158470819Y-101328604D01*
X158311396Y-101169181D01*
X158126711Y-101039864D01*
X158121733Y-101037543D01*
X158121730Y-101037541D01*
X158050219Y-101004195D01*
X157996934Y-100957277D01*
X157977473Y-100889000D01*
X157998015Y-100821040D01*
X158050219Y-100775805D01*
X158121730Y-100742459D01*
X158121733Y-100742457D01*
X158126711Y-100740136D01*
X158311396Y-100610819D01*
X158470819Y-100451396D01*
X158600136Y-100266711D01*
X158695419Y-100062376D01*
X158753772Y-99844600D01*
X158773422Y-99620000D01*
X158753772Y-99395400D01*
X158695419Y-99177624D01*
X158600136Y-98973289D01*
X158470819Y-98788604D01*
X158311396Y-98629181D01*
X158126711Y-98499864D01*
X158121733Y-98497543D01*
X158121730Y-98497541D01*
X158050219Y-98464195D01*
X157996934Y-98417277D01*
X157977473Y-98349000D01*
X157998015Y-98281040D01*
X158050219Y-98235805D01*
X158121730Y-98202459D01*
X158121733Y-98202457D01*
X158126711Y-98200136D01*
X158311396Y-98070819D01*
X158470819Y-97911396D01*
X158600136Y-97726711D01*
X158695419Y-97522376D01*
X158753772Y-97304600D01*
X158773422Y-97080000D01*
X158753772Y-96855400D01*
X158695419Y-96637624D01*
X158600136Y-96433289D01*
X158470819Y-96248604D01*
X158311396Y-96089181D01*
X158126711Y-95959864D01*
X158121733Y-95957543D01*
X158121730Y-95957541D01*
X158050219Y-95924195D01*
X157996934Y-95877277D01*
X157977473Y-95809000D01*
X157998015Y-95741040D01*
X158050219Y-95695805D01*
X158121730Y-95662459D01*
X158121733Y-95662457D01*
X158126711Y-95660136D01*
X158311396Y-95530819D01*
X158470819Y-95371396D01*
X158600136Y-95186711D01*
X158684668Y-95005433D01*
X158693096Y-94987358D01*
X158693097Y-94987357D01*
X158695419Y-94982376D01*
X158753772Y-94764600D01*
X158773422Y-94540000D01*
X158753772Y-94315400D01*
X158752348Y-94310085D01*
X158696842Y-94102934D01*
X158696841Y-94102932D01*
X158695419Y-94097624D01*
X158693096Y-94092642D01*
X158602459Y-93898270D01*
X158602457Y-93898267D01*
X158600136Y-93893289D01*
X158470819Y-93708604D01*
X158311396Y-93549181D01*
X158126711Y-93419864D01*
X158121733Y-93417543D01*
X158121730Y-93417541D01*
X158050219Y-93384195D01*
X157996934Y-93337277D01*
X157977473Y-93269000D01*
X157998015Y-93201040D01*
X158050219Y-93155805D01*
X158121730Y-93122459D01*
X158121733Y-93122457D01*
X158126711Y-93120136D01*
X158311396Y-92990819D01*
X158470819Y-92831396D01*
X158600136Y-92646711D01*
X158695419Y-92442376D01*
X158747143Y-92249342D01*
X158752348Y-92229915D01*
X158752348Y-92229913D01*
X158753772Y-92224600D01*
X158773422Y-92000000D01*
X158753772Y-91775400D01*
X158713431Y-91624845D01*
X158696842Y-91562934D01*
X158696841Y-91562932D01*
X158695419Y-91557624D01*
X158639740Y-91438220D01*
X158602459Y-91358270D01*
X158602457Y-91358267D01*
X158600136Y-91353289D01*
X158470819Y-91168604D01*
X158311396Y-91009181D01*
X158126711Y-90879864D01*
X158121733Y-90877543D01*
X158121730Y-90877541D01*
X158050219Y-90844195D01*
X157996934Y-90797277D01*
X157977473Y-90729000D01*
X157998015Y-90661040D01*
X158050219Y-90615805D01*
X158121730Y-90582459D01*
X158121733Y-90582457D01*
X158126711Y-90580136D01*
X158311396Y-90450819D01*
X158470819Y-90291396D01*
X158600136Y-90106711D01*
X158639902Y-90021434D01*
X158693096Y-89907358D01*
X158693097Y-89907357D01*
X158695419Y-89902376D01*
X158753772Y-89684600D01*
X158773422Y-89460000D01*
X158753772Y-89235400D01*
X158744764Y-89201780D01*
X158696842Y-89022934D01*
X158696841Y-89022932D01*
X158695419Y-89017624D01*
X158606327Y-88826565D01*
X158602459Y-88818270D01*
X158602457Y-88818267D01*
X158600136Y-88813289D01*
X158470819Y-88628604D01*
X158311396Y-88469181D01*
X158126711Y-88339864D01*
X158121733Y-88337543D01*
X158121730Y-88337541D01*
X158050219Y-88304195D01*
X157996934Y-88257277D01*
X157977473Y-88189000D01*
X157998015Y-88121040D01*
X158050219Y-88075805D01*
X158121730Y-88042459D01*
X158121733Y-88042457D01*
X158126711Y-88040136D01*
X158311396Y-87910819D01*
X158470819Y-87751396D01*
X158600136Y-87566711D01*
X158660053Y-87438220D01*
X158693096Y-87367358D01*
X158693097Y-87367357D01*
X158695419Y-87362376D01*
X158723655Y-87257000D01*
X158752348Y-87149915D01*
X158752348Y-87149913D01*
X158753772Y-87144600D01*
X158773422Y-86920000D01*
X158753772Y-86695400D01*
X158734867Y-86624845D01*
X158696842Y-86482934D01*
X158696841Y-86482932D01*
X158695419Y-86477624D01*
X158693096Y-86472642D01*
X158602459Y-86278270D01*
X158602457Y-86278267D01*
X158600136Y-86273289D01*
X158470819Y-86088604D01*
X158311396Y-85929181D01*
X158126711Y-85799864D01*
X158121733Y-85797543D01*
X158121730Y-85797541D01*
X158050219Y-85764195D01*
X157996934Y-85717277D01*
X157977473Y-85649000D01*
X157998015Y-85581040D01*
X158050219Y-85535805D01*
X158121730Y-85502459D01*
X158121733Y-85502457D01*
X158126711Y-85500136D01*
X158311396Y-85370819D01*
X158470819Y-85211396D01*
X158600136Y-85026711D01*
X158608586Y-85008591D01*
X158693096Y-84827358D01*
X158693097Y-84827357D01*
X158695419Y-84822376D01*
X158748348Y-84624845D01*
X158752348Y-84609915D01*
X158752348Y-84609913D01*
X158753772Y-84604600D01*
X158773422Y-84380000D01*
X158753772Y-84155400D01*
X158717876Y-84021434D01*
X158696842Y-83942934D01*
X158696841Y-83942932D01*
X158695419Y-83937624D01*
X158693096Y-83932642D01*
X158602459Y-83738270D01*
X158602457Y-83738267D01*
X158600136Y-83733289D01*
X158470819Y-83548604D01*
X158311396Y-83389181D01*
X158126711Y-83259864D01*
X158121733Y-83257543D01*
X158121730Y-83257541D01*
X158050219Y-83224195D01*
X157996934Y-83177277D01*
X157977473Y-83109000D01*
X157998015Y-83041040D01*
X158050219Y-82995805D01*
X158121730Y-82962459D01*
X158121733Y-82962457D01*
X158126711Y-82960136D01*
X158311396Y-82830819D01*
X158470819Y-82671396D01*
X158600136Y-82486711D01*
X158695419Y-82282376D01*
X158753772Y-82064600D01*
X158773422Y-81840000D01*
X158753772Y-81615400D01*
X158695419Y-81397624D01*
X158688600Y-81383000D01*
X158602459Y-81198270D01*
X158602457Y-81198267D01*
X158600136Y-81193289D01*
X158470819Y-81008604D01*
X158311396Y-80849181D01*
X158126711Y-80719864D01*
X158121733Y-80717543D01*
X158121730Y-80717541D01*
X158050219Y-80684195D01*
X157996934Y-80637277D01*
X157977473Y-80569000D01*
X157998015Y-80501040D01*
X158050219Y-80455805D01*
X158121730Y-80422459D01*
X158121733Y-80422457D01*
X158126711Y-80420136D01*
X158311396Y-80290819D01*
X158470819Y-80131396D01*
X158600136Y-79946711D01*
X158659223Y-79820000D01*
X158693096Y-79747358D01*
X158693097Y-79747357D01*
X158695419Y-79742376D01*
X158698386Y-79731305D01*
X158752348Y-79529915D01*
X158752348Y-79529913D01*
X158753772Y-79524600D01*
X158773422Y-79300000D01*
X158753772Y-79075400D01*
X158714088Y-78927298D01*
X158696842Y-78862934D01*
X158696841Y-78862932D01*
X158695419Y-78857624D01*
X158681895Y-78828621D01*
X158602459Y-78658270D01*
X158602457Y-78658267D01*
X158600136Y-78653289D01*
X158526332Y-78547885D01*
X164167000Y-78547885D01*
X164171475Y-78563124D01*
X164172865Y-78564329D01*
X164180548Y-78566000D01*
X164827885Y-78566000D01*
X164843124Y-78561525D01*
X164844329Y-78560135D01*
X164846000Y-78552452D01*
X164846000Y-77905116D01*
X164841525Y-77889877D01*
X164840135Y-77888672D01*
X164832452Y-77887001D01*
X164630331Y-77887001D01*
X164623510Y-77887371D01*
X164572648Y-77892895D01*
X164557396Y-77896521D01*
X164436946Y-77941676D01*
X164421351Y-77950214D01*
X164319276Y-78026715D01*
X164306715Y-78039276D01*
X164230214Y-78141351D01*
X164221676Y-78156946D01*
X164176522Y-78277394D01*
X164172895Y-78292649D01*
X164167369Y-78343514D01*
X164167000Y-78350328D01*
X164167000Y-78547885D01*
X158526332Y-78547885D01*
X158470819Y-78468604D01*
X158311396Y-78309181D01*
X158126711Y-78179864D01*
X158121733Y-78177543D01*
X158121730Y-78177541D01*
X158050219Y-78144195D01*
X157996934Y-78097277D01*
X157977473Y-78029000D01*
X157998015Y-77961040D01*
X158050219Y-77915805D01*
X158121730Y-77882459D01*
X158121733Y-77882457D01*
X158126711Y-77880136D01*
X158311396Y-77750819D01*
X158470819Y-77591396D01*
X158600136Y-77406711D01*
X158695419Y-77202376D01*
X158753772Y-76984600D01*
X158773422Y-76760000D01*
X158753772Y-76535400D01*
X158695419Y-76317624D01*
X158600136Y-76113289D01*
X158470819Y-75928604D01*
X158311396Y-75769181D01*
X158126711Y-75639864D01*
X158121733Y-75637543D01*
X158121730Y-75637541D01*
X158050219Y-75604195D01*
X157996934Y-75557277D01*
X157977473Y-75489000D01*
X157998015Y-75421040D01*
X158050219Y-75375805D01*
X158121730Y-75342459D01*
X158121733Y-75342457D01*
X158126711Y-75340136D01*
X158311396Y-75210819D01*
X158470819Y-75051396D01*
X158600136Y-74866711D01*
X158695419Y-74662376D01*
X158753772Y-74444600D01*
X158773422Y-74220000D01*
X158753772Y-73995400D01*
X158695419Y-73777624D01*
X158600136Y-73573289D01*
X158470819Y-73388604D01*
X158311396Y-73229181D01*
X158126711Y-73099864D01*
X158121733Y-73097543D01*
X158121730Y-73097541D01*
X158050219Y-73064195D01*
X157996934Y-73017277D01*
X157977473Y-72949000D01*
X157998015Y-72881040D01*
X158050219Y-72835805D01*
X158121730Y-72802459D01*
X158121733Y-72802457D01*
X158126711Y-72800136D01*
X158311396Y-72670819D01*
X158470819Y-72511396D01*
X158600136Y-72326711D01*
X158695419Y-72122376D01*
X158753772Y-71904600D01*
X158773422Y-71680000D01*
X158753772Y-71455400D01*
X158734867Y-71384845D01*
X158696842Y-71242934D01*
X158696841Y-71242932D01*
X158695419Y-71237624D01*
X158693096Y-71232642D01*
X158602459Y-71038270D01*
X158602457Y-71038267D01*
X158600136Y-71033289D01*
X158470819Y-70848604D01*
X158311396Y-70689181D01*
X158126711Y-70559864D01*
X158121733Y-70557543D01*
X158121730Y-70557541D01*
X158050219Y-70524195D01*
X157996934Y-70477277D01*
X157977473Y-70409000D01*
X157998015Y-70341040D01*
X158050219Y-70295805D01*
X158121730Y-70262459D01*
X158121733Y-70262457D01*
X158126711Y-70260136D01*
X158311396Y-70130819D01*
X158470819Y-69971396D01*
X158600136Y-69786711D01*
X158608586Y-69768591D01*
X158693096Y-69587358D01*
X158693097Y-69587357D01*
X158695419Y-69582376D01*
X158714395Y-69511559D01*
X158752348Y-69369915D01*
X158752348Y-69369913D01*
X158753772Y-69364600D01*
X158773422Y-69140000D01*
X158753772Y-68915400D01*
X158735591Y-68847548D01*
X158696842Y-68702934D01*
X158696841Y-68702932D01*
X158695419Y-68697624D01*
X158672219Y-68647872D01*
X158602459Y-68498270D01*
X158602457Y-68498267D01*
X158600136Y-68493289D01*
X158470819Y-68308604D01*
X158470100Y-68307885D01*
X164167000Y-68307885D01*
X164171475Y-68323124D01*
X164172865Y-68324329D01*
X164180548Y-68326000D01*
X164827885Y-68326000D01*
X164843124Y-68321525D01*
X164844329Y-68320135D01*
X164846000Y-68312452D01*
X164846000Y-67665116D01*
X164841525Y-67649877D01*
X164840135Y-67648672D01*
X164832452Y-67647001D01*
X164630331Y-67647001D01*
X164623510Y-67647371D01*
X164572648Y-67652895D01*
X164557396Y-67656521D01*
X164436946Y-67701676D01*
X164421351Y-67710214D01*
X164319276Y-67786715D01*
X164306715Y-67799276D01*
X164230214Y-67901351D01*
X164221676Y-67916946D01*
X164176522Y-68037394D01*
X164172895Y-68052649D01*
X164167369Y-68103514D01*
X164167000Y-68110328D01*
X164167000Y-68307885D01*
X158470100Y-68307885D01*
X158311396Y-68149181D01*
X158126711Y-68019864D01*
X158121733Y-68017543D01*
X158121730Y-68017541D01*
X158050219Y-67984195D01*
X157996934Y-67937277D01*
X157977473Y-67869000D01*
X157998015Y-67801040D01*
X158050219Y-67755805D01*
X158121730Y-67722459D01*
X158121733Y-67722457D01*
X158126711Y-67720136D01*
X158311396Y-67590819D01*
X158470819Y-67431396D01*
X158600136Y-67246711D01*
X158695419Y-67042376D01*
X158753772Y-66824600D01*
X158773422Y-66600000D01*
X158753772Y-66375400D01*
X158695419Y-66157624D01*
X158600136Y-65953289D01*
X158470819Y-65768604D01*
X158311396Y-65609181D01*
X158126711Y-65479864D01*
X158121733Y-65477543D01*
X158121730Y-65477541D01*
X158049627Y-65443919D01*
X157996342Y-65397002D01*
X157976881Y-65328724D01*
X157997423Y-65260764D01*
X158049628Y-65215529D01*
X158121469Y-65182030D01*
X158130968Y-65176545D01*
X158178689Y-65143130D01*
X158187064Y-65132653D01*
X158179996Y-65119206D01*
X157492812Y-64432022D01*
X157478868Y-64424408D01*
X157477035Y-64424539D01*
X157470420Y-64428790D01*
X156779283Y-65119927D01*
X156772853Y-65131702D01*
X156782149Y-65143717D01*
X156829032Y-65176545D01*
X156838531Y-65182030D01*
X156910372Y-65215529D01*
X156963657Y-65262445D01*
X156983119Y-65330722D01*
X156962578Y-65398683D01*
X156910373Y-65443919D01*
X156838270Y-65477541D01*
X156838267Y-65477543D01*
X156833289Y-65479864D01*
X156648604Y-65609181D01*
X156489181Y-65768604D01*
X156359864Y-65953289D01*
X156264581Y-66157624D01*
X156206228Y-66375400D01*
X156186578Y-66600000D01*
X156206228Y-66824600D01*
X156264581Y-67042376D01*
X156359864Y-67246711D01*
X156489181Y-67431396D01*
X156648604Y-67590819D01*
X156833289Y-67720136D01*
X156838267Y-67722457D01*
X156838270Y-67722459D01*
X156909781Y-67755805D01*
X156963066Y-67802723D01*
X156982527Y-67871000D01*
X156961985Y-67938960D01*
X156909781Y-67984195D01*
X156838270Y-68017541D01*
X156838267Y-68017543D01*
X156833289Y-68019864D01*
X156648604Y-68149181D01*
X156489181Y-68308604D01*
X156359864Y-68493289D01*
X156357543Y-68498267D01*
X156357541Y-68498270D01*
X156287781Y-68647872D01*
X156264581Y-68697624D01*
X156263159Y-68702932D01*
X156263158Y-68702934D01*
X156224409Y-68847548D01*
X156206228Y-68915400D01*
X156186578Y-69140000D01*
X156206228Y-69364600D01*
X156207652Y-69369913D01*
X156207652Y-69369915D01*
X156245606Y-69511559D01*
X156264581Y-69582376D01*
X156266903Y-69587357D01*
X156266904Y-69587358D01*
X156351415Y-69768591D01*
X156359864Y-69786711D01*
X156489181Y-69971396D01*
X156648604Y-70130819D01*
X156833289Y-70260136D01*
X156838267Y-70262457D01*
X156838270Y-70262459D01*
X156909781Y-70295805D01*
X156963066Y-70342723D01*
X156982527Y-70411000D01*
X156961985Y-70478960D01*
X156909781Y-70524195D01*
X156838270Y-70557541D01*
X156838267Y-70557543D01*
X156833289Y-70559864D01*
X156648604Y-70689181D01*
X156489181Y-70848604D01*
X156359864Y-71033289D01*
X156357543Y-71038267D01*
X156357541Y-71038270D01*
X156266904Y-71232642D01*
X156264581Y-71237624D01*
X156263159Y-71242932D01*
X156263158Y-71242934D01*
X156225133Y-71384845D01*
X156206228Y-71455400D01*
X156186578Y-71680000D01*
X156206228Y-71904600D01*
X156264581Y-72122376D01*
X156359864Y-72326711D01*
X156489181Y-72511396D01*
X156648604Y-72670819D01*
X156833289Y-72800136D01*
X156838267Y-72802457D01*
X156838270Y-72802459D01*
X156909781Y-72835805D01*
X156963066Y-72882723D01*
X156982527Y-72951000D01*
X156961985Y-73018960D01*
X156909781Y-73064195D01*
X156838270Y-73097541D01*
X156838267Y-73097543D01*
X156833289Y-73099864D01*
X156648604Y-73229181D01*
X156489181Y-73388604D01*
X156359864Y-73573289D01*
X156264581Y-73777624D01*
X156206228Y-73995400D01*
X156186578Y-74220000D01*
X156206228Y-74444600D01*
X156264581Y-74662376D01*
X156359864Y-74866711D01*
X156489181Y-75051396D01*
X156648604Y-75210819D01*
X156833289Y-75340136D01*
X156838267Y-75342457D01*
X156838270Y-75342459D01*
X156909781Y-75375805D01*
X156963066Y-75422723D01*
X156982527Y-75491000D01*
X156961985Y-75558960D01*
X156909781Y-75604195D01*
X156838270Y-75637541D01*
X156838267Y-75637543D01*
X156833289Y-75639864D01*
X156648604Y-75769181D01*
X156489181Y-75928604D01*
X156359864Y-76113289D01*
X156264581Y-76317624D01*
X156206228Y-76535400D01*
X156186578Y-76760000D01*
X156206228Y-76984600D01*
X156264581Y-77202376D01*
X156359864Y-77406711D01*
X156489181Y-77591396D01*
X156648604Y-77750819D01*
X156833289Y-77880136D01*
X156838267Y-77882457D01*
X156838270Y-77882459D01*
X156909781Y-77915805D01*
X156963066Y-77962723D01*
X156982527Y-78031000D01*
X156961985Y-78098960D01*
X156909781Y-78144195D01*
X156838270Y-78177541D01*
X156838267Y-78177543D01*
X156833289Y-78179864D01*
X156648604Y-78309181D01*
X156489181Y-78468604D01*
X156359864Y-78653289D01*
X156357543Y-78658267D01*
X156357541Y-78658270D01*
X156278105Y-78828621D01*
X156264581Y-78857624D01*
X156263159Y-78862932D01*
X156263158Y-78862934D01*
X156245912Y-78927298D01*
X156206228Y-79075400D01*
X156186578Y-79300000D01*
X156206228Y-79524600D01*
X156207652Y-79529913D01*
X156207652Y-79529915D01*
X156261615Y-79731305D01*
X156264581Y-79742376D01*
X156266903Y-79747357D01*
X156266904Y-79747358D01*
X156300778Y-79820000D01*
X156359864Y-79946711D01*
X156489181Y-80131396D01*
X156648604Y-80290819D01*
X156833289Y-80420136D01*
X156838267Y-80422457D01*
X156838270Y-80422459D01*
X156909781Y-80455805D01*
X156963066Y-80502723D01*
X156982527Y-80571000D01*
X156961985Y-80638960D01*
X156909781Y-80684195D01*
X156838270Y-80717541D01*
X156838267Y-80717543D01*
X156833289Y-80719864D01*
X156648604Y-80849181D01*
X156489181Y-81008604D01*
X156359864Y-81193289D01*
X156357543Y-81198267D01*
X156357541Y-81198270D01*
X156271400Y-81383000D01*
X156264581Y-81397624D01*
X156206228Y-81615400D01*
X156186578Y-81840000D01*
X156206228Y-82064600D01*
X156264581Y-82282376D01*
X156359864Y-82486711D01*
X156489181Y-82671396D01*
X156648604Y-82830819D01*
X156833289Y-82960136D01*
X156838267Y-82962457D01*
X156838270Y-82962459D01*
X156909781Y-82995805D01*
X156963066Y-83042723D01*
X156982527Y-83111000D01*
X156961985Y-83178960D01*
X156909781Y-83224195D01*
X156838270Y-83257541D01*
X156838267Y-83257543D01*
X156833289Y-83259864D01*
X156648604Y-83389181D01*
X156489181Y-83548604D01*
X156359864Y-83733289D01*
X156357543Y-83738267D01*
X156357541Y-83738270D01*
X156266904Y-83932642D01*
X156264581Y-83937624D01*
X156263159Y-83942932D01*
X156263158Y-83942934D01*
X156242124Y-84021434D01*
X156206228Y-84155400D01*
X156186578Y-84380000D01*
X156206228Y-84604600D01*
X156207652Y-84609913D01*
X156207652Y-84609915D01*
X156211653Y-84624845D01*
X156264581Y-84822376D01*
X156266903Y-84827357D01*
X156266904Y-84827358D01*
X156351415Y-85008591D01*
X156359864Y-85026711D01*
X156489181Y-85211396D01*
X156648604Y-85370819D01*
X156833289Y-85500136D01*
X156838267Y-85502457D01*
X156838270Y-85502459D01*
X156909781Y-85535805D01*
X156963066Y-85582723D01*
X156982527Y-85651000D01*
X156961985Y-85718960D01*
X156909781Y-85764195D01*
X156838270Y-85797541D01*
X156838267Y-85797543D01*
X156833289Y-85799864D01*
X156648604Y-85929181D01*
X156489181Y-86088604D01*
X156359864Y-86273289D01*
X156357543Y-86278267D01*
X156357541Y-86278270D01*
X156266904Y-86472642D01*
X156264581Y-86477624D01*
X156263159Y-86482932D01*
X156263158Y-86482934D01*
X156225133Y-86624845D01*
X156206228Y-86695400D01*
X156186578Y-86920000D01*
X156206228Y-87144600D01*
X156207652Y-87149913D01*
X156207652Y-87149915D01*
X156236346Y-87257000D01*
X156264581Y-87362376D01*
X156266903Y-87367357D01*
X156266904Y-87367358D01*
X156299948Y-87438220D01*
X156359864Y-87566711D01*
X156489181Y-87751396D01*
X156648604Y-87910819D01*
X156833289Y-88040136D01*
X156838267Y-88042457D01*
X156838270Y-88042459D01*
X156909781Y-88075805D01*
X156963066Y-88122723D01*
X156982527Y-88191000D01*
X156961985Y-88258960D01*
X156909781Y-88304195D01*
X156838270Y-88337541D01*
X156838267Y-88337543D01*
X156833289Y-88339864D01*
X156648604Y-88469181D01*
X156489181Y-88628604D01*
X156359864Y-88813289D01*
X156357543Y-88818267D01*
X156357541Y-88818270D01*
X156353673Y-88826565D01*
X156264581Y-89017624D01*
X156263159Y-89022932D01*
X156263158Y-89022934D01*
X156215236Y-89201780D01*
X156206228Y-89235400D01*
X156186578Y-89460000D01*
X156206228Y-89684600D01*
X156264581Y-89902376D01*
X156266903Y-89907357D01*
X156266904Y-89907358D01*
X156320099Y-90021434D01*
X156359864Y-90106711D01*
X156489181Y-90291396D01*
X156648604Y-90450819D01*
X156833289Y-90580136D01*
X156838267Y-90582457D01*
X156838270Y-90582459D01*
X156909781Y-90615805D01*
X156963066Y-90662723D01*
X156982527Y-90731000D01*
X156961985Y-90798960D01*
X156909781Y-90844195D01*
X156838270Y-90877541D01*
X156838267Y-90877543D01*
X156833289Y-90879864D01*
X156648604Y-91009181D01*
X156489181Y-91168604D01*
X156359864Y-91353289D01*
X156357543Y-91358267D01*
X156357541Y-91358270D01*
X156320260Y-91438220D01*
X156264581Y-91557624D01*
X156263159Y-91562932D01*
X156263158Y-91562934D01*
X156246569Y-91624845D01*
X156206228Y-91775400D01*
X156186578Y-92000000D01*
X156206228Y-92224600D01*
X156207652Y-92229913D01*
X156207652Y-92229915D01*
X156212858Y-92249342D01*
X156264581Y-92442376D01*
X156359864Y-92646711D01*
X156489181Y-92831396D01*
X156648604Y-92990819D01*
X156833289Y-93120136D01*
X156838267Y-93122457D01*
X156838270Y-93122459D01*
X156909781Y-93155805D01*
X156963066Y-93202723D01*
X156982527Y-93271000D01*
X156961985Y-93338960D01*
X156909781Y-93384195D01*
X156838270Y-93417541D01*
X156838267Y-93417543D01*
X156833289Y-93419864D01*
X156648604Y-93549181D01*
X156489181Y-93708604D01*
X156359864Y-93893289D01*
X156357543Y-93898267D01*
X156357541Y-93898270D01*
X156266904Y-94092642D01*
X156264581Y-94097624D01*
X156263159Y-94102932D01*
X156263158Y-94102934D01*
X156207652Y-94310085D01*
X156206228Y-94315400D01*
X156186578Y-94540000D01*
X156206228Y-94764600D01*
X156264581Y-94982376D01*
X156266903Y-94987357D01*
X156266904Y-94987358D01*
X156275333Y-95005433D01*
X156359864Y-95186711D01*
X156489181Y-95371396D01*
X156648604Y-95530819D01*
X156833289Y-95660136D01*
X156838267Y-95662457D01*
X156838270Y-95662459D01*
X156909781Y-95695805D01*
X156963066Y-95742723D01*
X156982527Y-95811000D01*
X156961985Y-95878960D01*
X156909781Y-95924195D01*
X156838270Y-95957541D01*
X156838267Y-95957543D01*
X156833289Y-95959864D01*
X156648604Y-96089181D01*
X156489181Y-96248604D01*
X156359864Y-96433289D01*
X156264581Y-96637624D01*
X156206228Y-96855400D01*
X156186578Y-97080000D01*
X156206228Y-97304600D01*
X156264581Y-97522376D01*
X156359864Y-97726711D01*
X156489181Y-97911396D01*
X156648604Y-98070819D01*
X156833289Y-98200136D01*
X156838267Y-98202457D01*
X156838270Y-98202459D01*
X156909781Y-98235805D01*
X156963066Y-98282723D01*
X156982527Y-98351000D01*
X156961985Y-98418960D01*
X156909781Y-98464195D01*
X156838270Y-98497541D01*
X156838267Y-98497543D01*
X156833289Y-98499864D01*
X156648604Y-98629181D01*
X156489181Y-98788604D01*
X156359864Y-98973289D01*
X156264581Y-99177624D01*
X156206228Y-99395400D01*
X156186578Y-99620000D01*
X156206228Y-99844600D01*
X156264581Y-100062376D01*
X156359864Y-100266711D01*
X156489181Y-100451396D01*
X156648604Y-100610819D01*
X156833289Y-100740136D01*
X156838267Y-100742457D01*
X156838270Y-100742459D01*
X156909781Y-100775805D01*
X156963066Y-100822723D01*
X156982527Y-100891000D01*
X156961985Y-100958960D01*
X156909781Y-101004195D01*
X156838270Y-101037541D01*
X156838267Y-101037543D01*
X156833289Y-101039864D01*
X156648604Y-101169181D01*
X156489181Y-101328604D01*
X156359864Y-101513289D01*
X156264581Y-101717624D01*
X156206228Y-101935400D01*
X156186578Y-102160000D01*
X156206228Y-102384600D01*
X156264581Y-102602376D01*
X156359864Y-102806711D01*
X156489181Y-102991396D01*
X156648604Y-103150819D01*
X156833289Y-103280136D01*
X156838267Y-103282457D01*
X156838270Y-103282459D01*
X156909781Y-103315805D01*
X156963066Y-103362723D01*
X156982527Y-103431000D01*
X156961985Y-103498960D01*
X156909781Y-103544195D01*
X156838270Y-103577541D01*
X156838267Y-103577543D01*
X156833289Y-103579864D01*
X156648604Y-103709181D01*
X156489181Y-103868604D01*
X156359864Y-104053289D01*
X156264581Y-104257624D01*
X156206228Y-104475400D01*
X156186578Y-104700000D01*
X156206228Y-104924600D01*
X156207652Y-104929913D01*
X156207652Y-104929915D01*
X156249122Y-105084681D01*
X156264581Y-105142376D01*
X156266903Y-105147357D01*
X156266904Y-105147358D01*
X156338197Y-105300245D01*
X156359864Y-105346711D01*
X156489181Y-105531396D01*
X156648604Y-105690819D01*
X156833289Y-105820136D01*
X156838267Y-105822457D01*
X156838270Y-105822459D01*
X156909781Y-105855805D01*
X156963066Y-105902723D01*
X156982527Y-105971000D01*
X156961985Y-106038960D01*
X156909781Y-106084195D01*
X156838270Y-106117541D01*
X156838267Y-106117543D01*
X156833289Y-106119864D01*
X156648604Y-106249181D01*
X156489181Y-106408604D01*
X156359864Y-106593289D01*
X156264581Y-106797624D01*
X156206228Y-107015400D01*
X156186578Y-107240000D01*
X156206228Y-107464600D01*
X156207652Y-107469913D01*
X156207652Y-107469915D01*
X156249122Y-107624681D01*
X156264581Y-107682376D01*
X156266903Y-107687357D01*
X156266904Y-107687358D01*
X156338197Y-107840245D01*
X156359864Y-107886711D01*
X156489181Y-108071396D01*
X156648604Y-108230819D01*
X156833289Y-108360136D01*
X156838267Y-108362457D01*
X156838270Y-108362459D01*
X156909781Y-108395805D01*
X156963066Y-108442723D01*
X156982527Y-108511000D01*
X156961985Y-108578960D01*
X156909781Y-108624195D01*
X156838270Y-108657541D01*
X156838267Y-108657543D01*
X156833289Y-108659864D01*
X156648604Y-108789181D01*
X156489181Y-108948604D01*
X156359864Y-109133289D01*
X156264581Y-109337624D01*
X156206228Y-109555400D01*
X156186578Y-109780000D01*
X133373422Y-109780000D01*
X133353772Y-109555400D01*
X133295419Y-109337624D01*
X133200136Y-109133289D01*
X133070819Y-108948604D01*
X132911396Y-108789181D01*
X132726711Y-108659864D01*
X132721733Y-108657543D01*
X132721730Y-108657541D01*
X132650219Y-108624195D01*
X132596934Y-108577277D01*
X132577473Y-108509000D01*
X132598015Y-108441040D01*
X132650219Y-108395805D01*
X132721730Y-108362459D01*
X132721733Y-108362457D01*
X132726711Y-108360136D01*
X132911396Y-108230819D01*
X133070819Y-108071396D01*
X133200136Y-107886711D01*
X133221804Y-107840245D01*
X133293096Y-107687358D01*
X133293097Y-107687357D01*
X133295419Y-107682376D01*
X133310879Y-107624681D01*
X133352348Y-107469915D01*
X133352348Y-107469913D01*
X133353772Y-107464600D01*
X133373422Y-107240000D01*
X133353772Y-107015400D01*
X133295419Y-106797624D01*
X133200136Y-106593289D01*
X133070819Y-106408604D01*
X132911396Y-106249181D01*
X132726711Y-106119864D01*
X132721733Y-106117543D01*
X132721730Y-106117541D01*
X132650219Y-106084195D01*
X132596934Y-106037277D01*
X132577473Y-105969000D01*
X132598015Y-105901040D01*
X132650219Y-105855805D01*
X132721730Y-105822459D01*
X132721733Y-105822457D01*
X132726711Y-105820136D01*
X132911396Y-105690819D01*
X133070819Y-105531396D01*
X133200136Y-105346711D01*
X133221804Y-105300245D01*
X133293096Y-105147358D01*
X133293097Y-105147357D01*
X133295419Y-105142376D01*
X133310879Y-105084681D01*
X133352348Y-104929915D01*
X133352348Y-104929913D01*
X133353772Y-104924600D01*
X133373422Y-104700000D01*
X133353772Y-104475400D01*
X133295419Y-104257624D01*
X133200136Y-104053289D01*
X133070819Y-103868604D01*
X132911396Y-103709181D01*
X132726711Y-103579864D01*
X132721733Y-103577543D01*
X132721730Y-103577541D01*
X132650219Y-103544195D01*
X132596934Y-103497277D01*
X132577473Y-103429000D01*
X132598015Y-103361040D01*
X132650219Y-103315805D01*
X132721730Y-103282459D01*
X132721733Y-103282457D01*
X132726711Y-103280136D01*
X132911396Y-103150819D01*
X133070819Y-102991396D01*
X133200136Y-102806711D01*
X133295419Y-102602376D01*
X133353772Y-102384600D01*
X133373422Y-102160000D01*
X133353772Y-101935400D01*
X133295419Y-101717624D01*
X133200136Y-101513289D01*
X133070819Y-101328604D01*
X132911396Y-101169181D01*
X132726711Y-101039864D01*
X132721733Y-101037543D01*
X132721730Y-101037541D01*
X132650219Y-101004195D01*
X132596934Y-100957277D01*
X132577473Y-100889000D01*
X132598015Y-100821040D01*
X132650219Y-100775805D01*
X132721730Y-100742459D01*
X132721733Y-100742457D01*
X132726711Y-100740136D01*
X132911396Y-100610819D01*
X133070819Y-100451396D01*
X133200136Y-100266711D01*
X133295419Y-100062376D01*
X133353772Y-99844600D01*
X133373422Y-99620000D01*
X133353772Y-99395400D01*
X133295419Y-99177624D01*
X133200136Y-98973289D01*
X133070819Y-98788604D01*
X132911396Y-98629181D01*
X132726711Y-98499864D01*
X132721733Y-98497543D01*
X132721730Y-98497541D01*
X132650219Y-98464195D01*
X132596934Y-98417277D01*
X132577473Y-98349000D01*
X132598015Y-98281040D01*
X132650219Y-98235805D01*
X132721730Y-98202459D01*
X132721733Y-98202457D01*
X132726711Y-98200136D01*
X132911396Y-98070819D01*
X133070819Y-97911396D01*
X133200136Y-97726711D01*
X133295419Y-97522376D01*
X133353772Y-97304600D01*
X133373422Y-97080000D01*
X133353772Y-96855400D01*
X133295419Y-96637624D01*
X133200136Y-96433289D01*
X133070819Y-96248604D01*
X132911396Y-96089181D01*
X132726711Y-95959864D01*
X132721733Y-95957543D01*
X132721730Y-95957541D01*
X132650219Y-95924195D01*
X132596934Y-95877277D01*
X132577473Y-95809000D01*
X132598015Y-95741040D01*
X132650219Y-95695805D01*
X132721730Y-95662459D01*
X132721733Y-95662457D01*
X132726711Y-95660136D01*
X132911396Y-95530819D01*
X133070819Y-95371396D01*
X133200136Y-95186711D01*
X133284668Y-95005433D01*
X133293096Y-94987358D01*
X133293097Y-94987357D01*
X133295419Y-94982376D01*
X133353772Y-94764600D01*
X133373422Y-94540000D01*
X133353772Y-94315400D01*
X133352348Y-94310085D01*
X133296842Y-94102934D01*
X133296841Y-94102932D01*
X133295419Y-94097624D01*
X133293096Y-94092642D01*
X133202459Y-93898270D01*
X133202457Y-93898267D01*
X133200136Y-93893289D01*
X133070819Y-93708604D01*
X132911396Y-93549181D01*
X132726711Y-93419864D01*
X132721733Y-93417543D01*
X132721730Y-93417541D01*
X132650219Y-93384195D01*
X132596934Y-93337277D01*
X132577473Y-93269000D01*
X132598015Y-93201040D01*
X132650219Y-93155805D01*
X132721730Y-93122459D01*
X132721733Y-93122457D01*
X132726711Y-93120136D01*
X132911396Y-92990819D01*
X133070819Y-92831396D01*
X133200136Y-92646711D01*
X133295419Y-92442376D01*
X133347143Y-92249342D01*
X133352348Y-92229915D01*
X133352348Y-92229913D01*
X133353772Y-92224600D01*
X133373422Y-92000000D01*
X133353772Y-91775400D01*
X133313431Y-91624845D01*
X133296842Y-91562934D01*
X133296841Y-91562932D01*
X133295419Y-91557624D01*
X133239740Y-91438220D01*
X133202459Y-91358270D01*
X133202457Y-91358267D01*
X133200136Y-91353289D01*
X133070819Y-91168604D01*
X132911396Y-91009181D01*
X132726711Y-90879864D01*
X132721733Y-90877543D01*
X132721730Y-90877541D01*
X132650219Y-90844195D01*
X132596934Y-90797277D01*
X132577473Y-90729000D01*
X132598015Y-90661040D01*
X132650219Y-90615805D01*
X132721730Y-90582459D01*
X132721733Y-90582457D01*
X132726711Y-90580136D01*
X132911396Y-90450819D01*
X133070819Y-90291396D01*
X133200136Y-90106711D01*
X133239902Y-90021434D01*
X133293096Y-89907358D01*
X133293097Y-89907357D01*
X133295419Y-89902376D01*
X133353772Y-89684600D01*
X133373422Y-89460000D01*
X133353772Y-89235400D01*
X133344764Y-89201780D01*
X133296842Y-89022934D01*
X133296841Y-89022932D01*
X133295419Y-89017624D01*
X133206327Y-88826565D01*
X133202459Y-88818270D01*
X133202457Y-88818267D01*
X133200136Y-88813289D01*
X133070819Y-88628604D01*
X132911396Y-88469181D01*
X132726711Y-88339864D01*
X132721733Y-88337543D01*
X132721730Y-88337541D01*
X132650219Y-88304195D01*
X132596934Y-88257277D01*
X132577473Y-88189000D01*
X132598015Y-88121040D01*
X132650219Y-88075805D01*
X132721730Y-88042459D01*
X132721733Y-88042457D01*
X132726711Y-88040136D01*
X132911396Y-87910819D01*
X133070819Y-87751396D01*
X133200136Y-87566711D01*
X133260053Y-87438220D01*
X133293096Y-87367358D01*
X133293097Y-87367357D01*
X133295419Y-87362376D01*
X133323655Y-87257000D01*
X133352348Y-87149915D01*
X133352348Y-87149913D01*
X133353772Y-87144600D01*
X133373422Y-86920000D01*
X133353772Y-86695400D01*
X133334867Y-86624845D01*
X133296842Y-86482934D01*
X133296841Y-86482932D01*
X133295419Y-86477624D01*
X133293096Y-86472642D01*
X133202459Y-86278270D01*
X133202457Y-86278267D01*
X133200136Y-86273289D01*
X133070819Y-86088604D01*
X132911396Y-85929181D01*
X132726711Y-85799864D01*
X132721733Y-85797543D01*
X132721730Y-85797541D01*
X132650219Y-85764195D01*
X132596934Y-85717277D01*
X132577473Y-85649000D01*
X132598015Y-85581040D01*
X132650219Y-85535805D01*
X132721730Y-85502459D01*
X132721733Y-85502457D01*
X132726711Y-85500136D01*
X132911396Y-85370819D01*
X133070819Y-85211396D01*
X133200136Y-85026711D01*
X133208586Y-85008591D01*
X133293096Y-84827358D01*
X133293097Y-84827357D01*
X133295419Y-84822376D01*
X133348348Y-84624845D01*
X133352348Y-84609915D01*
X133352348Y-84609913D01*
X133353772Y-84604600D01*
X133373422Y-84380000D01*
X133353772Y-84155400D01*
X133317876Y-84021434D01*
X133296842Y-83942934D01*
X133296841Y-83942932D01*
X133295419Y-83937624D01*
X133293096Y-83932642D01*
X133202459Y-83738270D01*
X133202457Y-83738267D01*
X133200136Y-83733289D01*
X133070819Y-83548604D01*
X132911396Y-83389181D01*
X132726711Y-83259864D01*
X132721733Y-83257543D01*
X132721730Y-83257541D01*
X132650219Y-83224195D01*
X132596934Y-83177277D01*
X132577473Y-83109000D01*
X132598015Y-83041040D01*
X132650219Y-82995805D01*
X132721730Y-82962459D01*
X132721733Y-82962457D01*
X132726711Y-82960136D01*
X132911396Y-82830819D01*
X133070819Y-82671396D01*
X133200136Y-82486711D01*
X133295419Y-82282376D01*
X133353772Y-82064600D01*
X133373422Y-81840000D01*
X133353772Y-81615400D01*
X133295419Y-81397624D01*
X133288600Y-81383000D01*
X133202459Y-81198270D01*
X133202457Y-81198267D01*
X133200136Y-81193289D01*
X133070819Y-81008604D01*
X132911396Y-80849181D01*
X132726711Y-80719864D01*
X132721733Y-80717543D01*
X132721730Y-80717541D01*
X132650219Y-80684195D01*
X132596934Y-80637277D01*
X132577473Y-80569000D01*
X132598015Y-80501040D01*
X132650219Y-80455805D01*
X132721730Y-80422459D01*
X132721733Y-80422457D01*
X132726711Y-80420136D01*
X132911396Y-80290819D01*
X133070819Y-80131396D01*
X133200136Y-79946711D01*
X133259223Y-79820000D01*
X133293096Y-79747358D01*
X133293097Y-79747357D01*
X133295419Y-79742376D01*
X133298386Y-79731305D01*
X133352348Y-79529915D01*
X133352348Y-79529913D01*
X133353772Y-79524600D01*
X133373422Y-79300000D01*
X133353772Y-79075400D01*
X133314088Y-78927298D01*
X133296842Y-78862934D01*
X133296841Y-78862932D01*
X133295419Y-78857624D01*
X133281895Y-78828621D01*
X133202459Y-78658270D01*
X133202457Y-78658267D01*
X133200136Y-78653289D01*
X133070819Y-78468604D01*
X132911396Y-78309181D01*
X132726711Y-78179864D01*
X132721733Y-78177543D01*
X132721730Y-78177541D01*
X132650219Y-78144195D01*
X132596934Y-78097277D01*
X132577473Y-78029000D01*
X132598015Y-77961040D01*
X132650219Y-77915805D01*
X132721730Y-77882459D01*
X132721733Y-77882457D01*
X132726711Y-77880136D01*
X132911396Y-77750819D01*
X133070819Y-77591396D01*
X133200136Y-77406711D01*
X133295419Y-77202376D01*
X133353772Y-76984600D01*
X133373422Y-76760000D01*
X133353772Y-76535400D01*
X133295419Y-76317624D01*
X133200136Y-76113289D01*
X133070819Y-75928604D01*
X132911396Y-75769181D01*
X132726711Y-75639864D01*
X132721733Y-75637543D01*
X132721730Y-75637541D01*
X132650219Y-75604195D01*
X132596934Y-75557277D01*
X132577473Y-75489000D01*
X132598015Y-75421040D01*
X132650219Y-75375805D01*
X132721730Y-75342459D01*
X132721733Y-75342457D01*
X132726711Y-75340136D01*
X132911396Y-75210819D01*
X133070819Y-75051396D01*
X133200136Y-74866711D01*
X133295419Y-74662376D01*
X133353772Y-74444600D01*
X133373422Y-74220000D01*
X133353772Y-73995400D01*
X133295419Y-73777624D01*
X133200136Y-73573289D01*
X133070819Y-73388604D01*
X132911396Y-73229181D01*
X132726711Y-73099864D01*
X132721733Y-73097543D01*
X132721730Y-73097541D01*
X132650219Y-73064195D01*
X132596934Y-73017277D01*
X132577473Y-72949000D01*
X132598015Y-72881040D01*
X132650219Y-72835805D01*
X132721730Y-72802459D01*
X132721733Y-72802457D01*
X132726711Y-72800136D01*
X132911396Y-72670819D01*
X133070819Y-72511396D01*
X133200136Y-72326711D01*
X133295419Y-72122376D01*
X133353772Y-71904600D01*
X133373422Y-71680000D01*
X133353772Y-71455400D01*
X133334867Y-71384845D01*
X133296842Y-71242934D01*
X133296841Y-71242932D01*
X133295419Y-71237624D01*
X133293096Y-71232642D01*
X133202459Y-71038270D01*
X133202457Y-71038267D01*
X133200136Y-71033289D01*
X133070819Y-70848604D01*
X132911396Y-70689181D01*
X132726711Y-70559864D01*
X132721733Y-70557543D01*
X132721730Y-70557541D01*
X132650219Y-70524195D01*
X132596934Y-70477277D01*
X132577473Y-70409000D01*
X132598015Y-70341040D01*
X132650219Y-70295805D01*
X132721730Y-70262459D01*
X132721733Y-70262457D01*
X132726711Y-70260136D01*
X132911396Y-70130819D01*
X133070819Y-69971396D01*
X133200136Y-69786711D01*
X133208586Y-69768591D01*
X133293096Y-69587358D01*
X133293097Y-69587357D01*
X133295419Y-69582376D01*
X133314395Y-69511559D01*
X133352348Y-69369915D01*
X133352348Y-69369913D01*
X133353772Y-69364600D01*
X133373422Y-69140000D01*
X133353772Y-68915400D01*
X133335591Y-68847548D01*
X133296842Y-68702934D01*
X133296841Y-68702932D01*
X133295419Y-68697624D01*
X133272219Y-68647872D01*
X133202459Y-68498270D01*
X133202457Y-68498267D01*
X133200136Y-68493289D01*
X133070819Y-68308604D01*
X132911396Y-68149181D01*
X132726711Y-68019864D01*
X132721733Y-68017543D01*
X132721730Y-68017541D01*
X132650219Y-67984195D01*
X132596934Y-67937277D01*
X132577473Y-67869000D01*
X132598015Y-67801040D01*
X132650219Y-67755805D01*
X132721730Y-67722459D01*
X132721733Y-67722457D01*
X132726711Y-67720136D01*
X132911396Y-67590819D01*
X133070819Y-67431396D01*
X133200136Y-67246711D01*
X133295419Y-67042376D01*
X133353772Y-66824600D01*
X133373422Y-66600000D01*
X133353772Y-66375400D01*
X133295419Y-66157624D01*
X133200136Y-65953289D01*
X133070819Y-65768604D01*
X132911396Y-65609181D01*
X132863261Y-65575477D01*
X132818934Y-65520021D01*
X132811625Y-65449402D01*
X132843655Y-65386041D01*
X132904857Y-65350056D01*
X132921925Y-65347002D01*
X132932820Y-65345818D01*
X132970316Y-65341745D01*
X133106705Y-65290615D01*
X133223261Y-65203261D01*
X133310615Y-65086705D01*
X133361745Y-64950316D01*
X133368500Y-64888134D01*
X133368500Y-64065475D01*
X156187559Y-64065475D01*
X156206243Y-64279036D01*
X156208145Y-64289823D01*
X156263630Y-64496894D01*
X156267378Y-64507190D01*
X156357972Y-64701473D01*
X156363455Y-64710968D01*
X156396870Y-64758689D01*
X156407347Y-64767064D01*
X156420794Y-64759996D01*
X157107978Y-64072812D01*
X157114356Y-64061132D01*
X157844408Y-64061132D01*
X157844539Y-64062965D01*
X157848790Y-64069580D01*
X158539927Y-64760717D01*
X158551702Y-64767147D01*
X158554477Y-64765000D01*
X164205090Y-64765000D01*
X164240927Y-64875296D01*
X164246267Y-64887291D01*
X164337730Y-65045709D01*
X164345446Y-65056328D01*
X164467843Y-65192265D01*
X164477606Y-65201056D01*
X164625588Y-65308571D01*
X164636960Y-65315137D01*
X164804068Y-65389538D01*
X164816556Y-65393595D01*
X164828280Y-65396088D01*
X164842341Y-65395015D01*
X164846000Y-65385059D01*
X164846000Y-64772115D01*
X164841525Y-64756876D01*
X164840135Y-64755671D01*
X164832452Y-64754000D01*
X164219631Y-64754000D01*
X164206100Y-64757973D01*
X164205090Y-64765000D01*
X158554477Y-64765000D01*
X158563717Y-64757851D01*
X158596545Y-64710968D01*
X158602028Y-64701473D01*
X158692622Y-64507190D01*
X158696370Y-64496894D01*
X158751855Y-64289823D01*
X158753757Y-64279036D01*
X158772441Y-64065475D01*
X158772441Y-64054525D01*
X158753757Y-63840964D01*
X158751855Y-63830177D01*
X158696370Y-63623106D01*
X158692622Y-63612810D01*
X158602028Y-63418527D01*
X158596545Y-63409032D01*
X158563130Y-63361311D01*
X158552653Y-63352936D01*
X158539206Y-63360004D01*
X157852022Y-64047188D01*
X157844408Y-64061132D01*
X157114356Y-64061132D01*
X157115592Y-64058868D01*
X157115461Y-64057035D01*
X157111210Y-64050420D01*
X156420073Y-63359283D01*
X156408298Y-63352853D01*
X156396283Y-63362149D01*
X156363455Y-63409032D01*
X156357972Y-63418527D01*
X156267378Y-63612810D01*
X156263630Y-63623106D01*
X156208145Y-63830177D01*
X156206243Y-63840964D01*
X156187559Y-64054525D01*
X156187559Y-64065475D01*
X133368500Y-64065475D01*
X133368500Y-63231866D01*
X133361745Y-63169684D01*
X133310615Y-63033295D01*
X133276179Y-62987347D01*
X156772936Y-62987347D01*
X156780004Y-63000794D01*
X157467188Y-63687978D01*
X157481132Y-63695592D01*
X157482965Y-63695461D01*
X157489580Y-63691210D01*
X158180717Y-63000073D01*
X158187147Y-62988298D01*
X158177851Y-62976283D01*
X158130968Y-62943455D01*
X158121473Y-62937972D01*
X157927190Y-62847378D01*
X157916894Y-62843630D01*
X157709823Y-62788145D01*
X157699036Y-62786243D01*
X157485475Y-62767559D01*
X157474525Y-62767559D01*
X157260964Y-62786243D01*
X157250177Y-62788145D01*
X157043106Y-62843630D01*
X157032810Y-62847378D01*
X156838527Y-62937972D01*
X156829032Y-62943455D01*
X156781311Y-62976870D01*
X156772936Y-62987347D01*
X133276179Y-62987347D01*
X133223261Y-62916739D01*
X133106705Y-62829385D01*
X132970316Y-62778255D01*
X132908134Y-62771500D01*
X131251866Y-62771500D01*
X131189684Y-62778255D01*
X131053295Y-62829385D01*
X130936739Y-62916739D01*
X130849385Y-63033295D01*
X130798255Y-63169684D01*
X130791500Y-63231866D01*
X130791500Y-64888134D01*
X130798255Y-64950316D01*
X130849385Y-65086705D01*
X130936739Y-65203261D01*
X131053295Y-65290615D01*
X131189684Y-65341745D01*
X131227180Y-65345818D01*
X131238075Y-65347002D01*
X131303637Y-65374244D01*
X131344063Y-65432607D01*
X131346518Y-65503561D01*
X131310223Y-65564579D01*
X131296743Y-65575474D01*
X131248604Y-65609181D01*
X131089181Y-65768604D01*
X130959864Y-65953289D01*
X130864581Y-66157624D01*
X130806228Y-66375400D01*
X130786578Y-66600000D01*
X130806228Y-66824600D01*
X130864581Y-67042376D01*
X130959864Y-67246711D01*
X131089181Y-67431396D01*
X131248604Y-67590819D01*
X131433289Y-67720136D01*
X131438267Y-67722457D01*
X131438270Y-67722459D01*
X131509781Y-67755805D01*
X131563066Y-67802723D01*
X131582527Y-67871000D01*
X131561985Y-67938960D01*
X131509781Y-67984195D01*
X131438270Y-68017541D01*
X131438267Y-68017543D01*
X131433289Y-68019864D01*
X131248604Y-68149181D01*
X131089181Y-68308604D01*
X130959864Y-68493289D01*
X130957543Y-68498267D01*
X130957541Y-68498270D01*
X130887781Y-68647872D01*
X130864581Y-68697624D01*
X130863159Y-68702932D01*
X130863158Y-68702934D01*
X130824409Y-68847548D01*
X130806228Y-68915400D01*
X130786578Y-69140000D01*
X130806228Y-69364600D01*
X130807652Y-69369913D01*
X130807652Y-69369915D01*
X130845606Y-69511559D01*
X130864581Y-69582376D01*
X130866903Y-69587357D01*
X130866904Y-69587358D01*
X130951415Y-69768591D01*
X130959864Y-69786711D01*
X131089181Y-69971396D01*
X131248604Y-70130819D01*
X131433289Y-70260136D01*
X131438267Y-70262457D01*
X131438270Y-70262459D01*
X131509781Y-70295805D01*
X131563066Y-70342723D01*
X131582527Y-70411000D01*
X131561985Y-70478960D01*
X131509781Y-70524195D01*
X131438270Y-70557541D01*
X131438267Y-70557543D01*
X131433289Y-70559864D01*
X131248604Y-70689181D01*
X131089181Y-70848604D01*
X130959864Y-71033289D01*
X130957543Y-71038267D01*
X130957541Y-71038270D01*
X130866904Y-71232642D01*
X130864581Y-71237624D01*
X130863159Y-71242932D01*
X130863158Y-71242934D01*
X130825133Y-71384845D01*
X130806228Y-71455400D01*
X130786578Y-71680000D01*
X130806228Y-71904600D01*
X130864581Y-72122376D01*
X130959864Y-72326711D01*
X131089181Y-72511396D01*
X131248604Y-72670819D01*
X131433289Y-72800136D01*
X131438267Y-72802457D01*
X131438270Y-72802459D01*
X131509781Y-72835805D01*
X131563066Y-72882723D01*
X131582527Y-72951000D01*
X131561985Y-73018960D01*
X131509781Y-73064195D01*
X131438270Y-73097541D01*
X131438267Y-73097543D01*
X131433289Y-73099864D01*
X131248604Y-73229181D01*
X131089181Y-73388604D01*
X130959864Y-73573289D01*
X130864581Y-73777624D01*
X130806228Y-73995400D01*
X130786578Y-74220000D01*
X130806228Y-74444600D01*
X130864581Y-74662376D01*
X130959864Y-74866711D01*
X131089181Y-75051396D01*
X131248604Y-75210819D01*
X131433289Y-75340136D01*
X131438267Y-75342457D01*
X131438270Y-75342459D01*
X131509781Y-75375805D01*
X131563066Y-75422723D01*
X131582527Y-75491000D01*
X131561985Y-75558960D01*
X131509781Y-75604195D01*
X131438270Y-75637541D01*
X131438267Y-75637543D01*
X131433289Y-75639864D01*
X131248604Y-75769181D01*
X131089181Y-75928604D01*
X130959864Y-76113289D01*
X130864581Y-76317624D01*
X130806228Y-76535400D01*
X130786578Y-76760000D01*
X130806228Y-76984600D01*
X130864581Y-77202376D01*
X130959864Y-77406711D01*
X131089181Y-77591396D01*
X131248604Y-77750819D01*
X131433289Y-77880136D01*
X131438267Y-77882457D01*
X131438270Y-77882459D01*
X131509781Y-77915805D01*
X131563066Y-77962723D01*
X131582527Y-78031000D01*
X131561985Y-78098960D01*
X131509781Y-78144195D01*
X131438270Y-78177541D01*
X131438267Y-78177543D01*
X131433289Y-78179864D01*
X131248604Y-78309181D01*
X131089181Y-78468604D01*
X130959864Y-78653289D01*
X130957543Y-78658267D01*
X130957541Y-78658270D01*
X130878105Y-78828621D01*
X130864581Y-78857624D01*
X130863159Y-78862932D01*
X130863158Y-78862934D01*
X130845912Y-78927298D01*
X130806228Y-79075400D01*
X130786578Y-79300000D01*
X130806228Y-79524600D01*
X130807652Y-79529913D01*
X130807652Y-79529915D01*
X130861615Y-79731305D01*
X130864581Y-79742376D01*
X130866903Y-79747357D01*
X130866904Y-79747358D01*
X130900778Y-79820000D01*
X130959864Y-79946711D01*
X131089181Y-80131396D01*
X131248604Y-80290819D01*
X131433289Y-80420136D01*
X131438267Y-80422457D01*
X131438270Y-80422459D01*
X131509781Y-80455805D01*
X131563066Y-80502723D01*
X131582527Y-80571000D01*
X131561985Y-80638960D01*
X131509781Y-80684195D01*
X131438270Y-80717541D01*
X131438267Y-80717543D01*
X131433289Y-80719864D01*
X131248604Y-80849181D01*
X131089181Y-81008604D01*
X130959864Y-81193289D01*
X130957543Y-81198267D01*
X130957541Y-81198270D01*
X130871400Y-81383000D01*
X130864581Y-81397624D01*
X130806228Y-81615400D01*
X130786578Y-81840000D01*
X130806228Y-82064600D01*
X130864581Y-82282376D01*
X130959864Y-82486711D01*
X131089181Y-82671396D01*
X131248604Y-82830819D01*
X131433289Y-82960136D01*
X131438267Y-82962457D01*
X131438270Y-82962459D01*
X131509781Y-82995805D01*
X131563066Y-83042723D01*
X131582527Y-83111000D01*
X131561985Y-83178960D01*
X131509781Y-83224195D01*
X131438270Y-83257541D01*
X131438267Y-83257543D01*
X131433289Y-83259864D01*
X131248604Y-83389181D01*
X131089181Y-83548604D01*
X130959864Y-83733289D01*
X130957543Y-83738267D01*
X130957541Y-83738270D01*
X130866904Y-83932642D01*
X130864581Y-83937624D01*
X130863159Y-83942932D01*
X130863158Y-83942934D01*
X130842124Y-84021434D01*
X130806228Y-84155400D01*
X130786578Y-84380000D01*
X130806228Y-84604600D01*
X130807652Y-84609913D01*
X130807652Y-84609915D01*
X130811653Y-84624845D01*
X130864581Y-84822376D01*
X130866903Y-84827357D01*
X130866904Y-84827358D01*
X130951415Y-85008591D01*
X130959864Y-85026711D01*
X131089181Y-85211396D01*
X131248604Y-85370819D01*
X131433289Y-85500136D01*
X131438267Y-85502457D01*
X131438270Y-85502459D01*
X131509781Y-85535805D01*
X131563066Y-85582723D01*
X131582527Y-85651000D01*
X131561985Y-85718960D01*
X131509781Y-85764195D01*
X131438270Y-85797541D01*
X131438267Y-85797543D01*
X131433289Y-85799864D01*
X131248604Y-85929181D01*
X131089181Y-86088604D01*
X130959864Y-86273289D01*
X130957543Y-86278267D01*
X130957541Y-86278270D01*
X130866904Y-86472642D01*
X130864581Y-86477624D01*
X130863159Y-86482932D01*
X130863158Y-86482934D01*
X130825133Y-86624845D01*
X130806228Y-86695400D01*
X130786578Y-86920000D01*
X130806228Y-87144600D01*
X130807652Y-87149913D01*
X130807652Y-87149915D01*
X130836346Y-87257000D01*
X130864581Y-87362376D01*
X130866903Y-87367357D01*
X130866904Y-87367358D01*
X130899948Y-87438220D01*
X130959864Y-87566711D01*
X131089181Y-87751396D01*
X131248604Y-87910819D01*
X131433289Y-88040136D01*
X131438267Y-88042457D01*
X131438270Y-88042459D01*
X131509781Y-88075805D01*
X131563066Y-88122723D01*
X131582527Y-88191000D01*
X131561985Y-88258960D01*
X131509781Y-88304195D01*
X131438270Y-88337541D01*
X131438267Y-88337543D01*
X131433289Y-88339864D01*
X131248604Y-88469181D01*
X131089181Y-88628604D01*
X130959864Y-88813289D01*
X130957543Y-88818267D01*
X130957541Y-88818270D01*
X130953673Y-88826565D01*
X130864581Y-89017624D01*
X130863159Y-89022932D01*
X130863158Y-89022934D01*
X130815236Y-89201780D01*
X130806228Y-89235400D01*
X130786578Y-89460000D01*
X130806228Y-89684600D01*
X130864581Y-89902376D01*
X130866903Y-89907357D01*
X130866904Y-89907358D01*
X130920099Y-90021434D01*
X130959864Y-90106711D01*
X131089181Y-90291396D01*
X131248604Y-90450819D01*
X131433289Y-90580136D01*
X131438267Y-90582457D01*
X131438270Y-90582459D01*
X131509781Y-90615805D01*
X131563066Y-90662723D01*
X131582527Y-90731000D01*
X131561985Y-90798960D01*
X131509781Y-90844195D01*
X131438270Y-90877541D01*
X131438267Y-90877543D01*
X131433289Y-90879864D01*
X131248604Y-91009181D01*
X131089181Y-91168604D01*
X130959864Y-91353289D01*
X130957543Y-91358267D01*
X130957541Y-91358270D01*
X130920260Y-91438220D01*
X130864581Y-91557624D01*
X130863159Y-91562932D01*
X130863158Y-91562934D01*
X130846569Y-91624845D01*
X130806228Y-91775400D01*
X130786578Y-92000000D01*
X130806228Y-92224600D01*
X130807652Y-92229913D01*
X130807652Y-92229915D01*
X130812858Y-92249342D01*
X130864581Y-92442376D01*
X130959864Y-92646711D01*
X131089181Y-92831396D01*
X131248604Y-92990819D01*
X131433289Y-93120136D01*
X131438267Y-93122457D01*
X131438270Y-93122459D01*
X131509781Y-93155805D01*
X131563066Y-93202723D01*
X131582527Y-93271000D01*
X131561985Y-93338960D01*
X131509781Y-93384195D01*
X131438270Y-93417541D01*
X131438267Y-93417543D01*
X131433289Y-93419864D01*
X131248604Y-93549181D01*
X131089181Y-93708604D01*
X130959864Y-93893289D01*
X130957543Y-93898267D01*
X130957541Y-93898270D01*
X130866904Y-94092642D01*
X130864581Y-94097624D01*
X130863159Y-94102932D01*
X130863158Y-94102934D01*
X130807652Y-94310085D01*
X130806228Y-94315400D01*
X130786578Y-94540000D01*
X130806228Y-94764600D01*
X130864581Y-94982376D01*
X130866903Y-94987357D01*
X130866904Y-94987358D01*
X130875333Y-95005433D01*
X130959864Y-95186711D01*
X131089181Y-95371396D01*
X131248604Y-95530819D01*
X131433289Y-95660136D01*
X131438267Y-95662457D01*
X131438270Y-95662459D01*
X131509781Y-95695805D01*
X131563066Y-95742723D01*
X131582527Y-95811000D01*
X131561985Y-95878960D01*
X131509781Y-95924195D01*
X131438270Y-95957541D01*
X131438267Y-95957543D01*
X131433289Y-95959864D01*
X131248604Y-96089181D01*
X131089181Y-96248604D01*
X130959864Y-96433289D01*
X130864581Y-96637624D01*
X130806228Y-96855400D01*
X130786578Y-97080000D01*
X130806228Y-97304600D01*
X130864581Y-97522376D01*
X130959864Y-97726711D01*
X131089181Y-97911396D01*
X131248604Y-98070819D01*
X131433289Y-98200136D01*
X131438267Y-98202457D01*
X131438270Y-98202459D01*
X131509781Y-98235805D01*
X131563066Y-98282723D01*
X131582527Y-98351000D01*
X131561985Y-98418960D01*
X131509781Y-98464195D01*
X131438270Y-98497541D01*
X131438267Y-98497543D01*
X131433289Y-98499864D01*
X131248604Y-98629181D01*
X131089181Y-98788604D01*
X130959864Y-98973289D01*
X130864581Y-99177624D01*
X130806228Y-99395400D01*
X130786578Y-99620000D01*
X130806228Y-99844600D01*
X130864581Y-100062376D01*
X130959864Y-100266711D01*
X131089181Y-100451396D01*
X131248604Y-100610819D01*
X131433289Y-100740136D01*
X131438267Y-100742457D01*
X131438270Y-100742459D01*
X131509781Y-100775805D01*
X131563066Y-100822723D01*
X131582527Y-100891000D01*
X131561985Y-100958960D01*
X131509781Y-101004195D01*
X131438270Y-101037541D01*
X131438267Y-101037543D01*
X131433289Y-101039864D01*
X131248604Y-101169181D01*
X131089181Y-101328604D01*
X130959864Y-101513289D01*
X130864581Y-101717624D01*
X130806228Y-101935400D01*
X130786578Y-102160000D01*
X130806228Y-102384600D01*
X130864581Y-102602376D01*
X130959864Y-102806711D01*
X131089181Y-102991396D01*
X131248604Y-103150819D01*
X131433289Y-103280136D01*
X131438267Y-103282457D01*
X131438270Y-103282459D01*
X131509781Y-103315805D01*
X131563066Y-103362723D01*
X131582527Y-103431000D01*
X131561985Y-103498960D01*
X131509781Y-103544195D01*
X131438270Y-103577541D01*
X131438267Y-103577543D01*
X131433289Y-103579864D01*
X131248604Y-103709181D01*
X131089181Y-103868604D01*
X130959864Y-104053289D01*
X130864581Y-104257624D01*
X130806228Y-104475400D01*
X130786578Y-104700000D01*
X130806228Y-104924600D01*
X130807652Y-104929913D01*
X130807652Y-104929915D01*
X130849122Y-105084681D01*
X130864581Y-105142376D01*
X130866903Y-105147357D01*
X130866904Y-105147358D01*
X130938197Y-105300245D01*
X130959864Y-105346711D01*
X131089181Y-105531396D01*
X131248604Y-105690819D01*
X131433289Y-105820136D01*
X131438267Y-105822457D01*
X131438270Y-105822459D01*
X131509781Y-105855805D01*
X131563066Y-105902723D01*
X131582527Y-105971000D01*
X131561985Y-106038960D01*
X131509781Y-106084195D01*
X131438270Y-106117541D01*
X131438267Y-106117543D01*
X131433289Y-106119864D01*
X131248604Y-106249181D01*
X131089181Y-106408604D01*
X130959864Y-106593289D01*
X130864581Y-106797624D01*
X130806228Y-107015400D01*
X130786578Y-107240000D01*
X130806228Y-107464600D01*
X130807652Y-107469913D01*
X130807652Y-107469915D01*
X130849122Y-107624681D01*
X130864581Y-107682376D01*
X130866903Y-107687357D01*
X130866904Y-107687358D01*
X130938197Y-107840245D01*
X130959864Y-107886711D01*
X131089181Y-108071396D01*
X131248604Y-108230819D01*
X131433289Y-108360136D01*
X131438267Y-108362457D01*
X131438270Y-108362459D01*
X131509781Y-108395805D01*
X131563066Y-108442723D01*
X131582527Y-108511000D01*
X131561985Y-108578960D01*
X131509781Y-108624195D01*
X131438270Y-108657541D01*
X131438267Y-108657543D01*
X131433289Y-108659864D01*
X131248604Y-108789181D01*
X131089181Y-108948604D01*
X130959864Y-109133289D01*
X130864581Y-109337624D01*
X130806228Y-109555400D01*
X130786578Y-109780000D01*
X124460000Y-109780000D01*
X124460000Y-50926000D01*
X124480002Y-50857879D01*
X124533658Y-50811386D01*
X124586000Y-50800000D01*
X172594000Y-50800000D01*
X172662121Y-50820002D01*
G37*
%TD.AperFunction*%
%TD*%
M02*
