%TF.GenerationSoftware,KiCad,Pcbnew,(6.0.4)*%
%TF.CreationDate,2023-04-09T21:12:41+08:00*%
%TF.ProjectId,KiCad,4b694361-642e-46b6-9963-61645f706362,rev?*%
%TF.SameCoordinates,Original*%
%TF.FileFunction,Soldermask,Bot*%
%TF.FilePolarity,Negative*%
%FSLAX46Y46*%
G04 Gerber Fmt 4.6, Leading zero omitted, Abs format (unit mm)*
G04 Created by KiCad (PCBNEW (6.0.4)) date 2023-04-09 21:12:41*
%MOMM*%
%LPD*%
G01*
G04 APERTURE LIST*
%ADD10R,0.850000X0.850000*%
%ADD11O,0.850000X0.850000*%
%ADD12C,1.440000*%
%ADD13R,1.560000X1.560000*%
%ADD14C,1.560000*%
G04 APERTURE END LIST*
D10*
%TO.C,J3*%
X165100000Y-78820000D03*
D11*
X165100000Y-79820000D03*
X165100000Y-80820000D03*
X165100000Y-81820000D03*
X165100000Y-82820000D03*
X165100000Y-83820000D03*
X165100000Y-84820000D03*
X165100000Y-85820000D03*
X165100000Y-86820000D03*
X165100000Y-87820000D03*
X165100000Y-88820000D03*
X165100000Y-89820000D03*
X165100000Y-90820000D03*
X165100000Y-91820000D03*
X165100000Y-92820000D03*
X165100000Y-93820000D03*
%TD*%
D12*
%TO.C,RV1*%
X167640000Y-106680000D03*
X165100000Y-104140000D03*
X162560000Y-106680000D03*
%TD*%
D10*
%TO.C,J1*%
X165100000Y-68580000D03*
D11*
X165100000Y-69580000D03*
X165100000Y-70580000D03*
X165100000Y-71580000D03*
%TD*%
D13*
%TO.C,U1*%
X132080000Y-64060000D03*
D14*
X132080000Y-66600000D03*
X132080000Y-69140000D03*
X132080000Y-71680000D03*
X132080000Y-74220000D03*
X132080000Y-76760000D03*
X132080000Y-79300000D03*
X132080000Y-81840000D03*
X132080000Y-84380000D03*
X132080000Y-86920000D03*
X132080000Y-89460000D03*
X132080000Y-92000000D03*
X132080000Y-94540000D03*
X132080000Y-97080000D03*
X132080000Y-99620000D03*
X132080000Y-102160000D03*
X132080000Y-104700000D03*
X132080000Y-107240000D03*
X132080000Y-109780000D03*
X157480000Y-64060000D03*
X157480000Y-66600000D03*
X157480000Y-69140000D03*
X157480000Y-71680000D03*
X157480000Y-74220000D03*
X157480000Y-76760000D03*
X157480000Y-79300000D03*
X157480000Y-81840000D03*
X157480000Y-84380000D03*
X157480000Y-86920000D03*
X157480000Y-89460000D03*
X157480000Y-92000000D03*
X157480000Y-94540000D03*
X157480000Y-97080000D03*
X157480000Y-99620000D03*
X157480000Y-102160000D03*
X157480000Y-104700000D03*
X157480000Y-107240000D03*
X157480000Y-109780000D03*
%TD*%
D10*
%TO.C,J2*%
X165100000Y-63500000D03*
D11*
X165100000Y-64500000D03*
%TD*%
M02*
