%TF.GenerationSoftware,KiCad,Pcbnew,(6.0.4)*%
%TF.CreationDate,2023-04-09T21:12:41+08:00*%
%TF.ProjectId,KiCad,4b694361-642e-46b6-9963-61645f706362,rev?*%
%TF.SameCoordinates,Original*%
%TF.FileFunction,Legend,Top*%
%TF.FilePolarity,Positive*%
%FSLAX46Y46*%
G04 Gerber Fmt 4.6, Leading zero omitted, Abs format (unit mm)*
G04 Created by KiCad (PCBNEW (6.0.4)) date 2023-04-09 21:12:41*
%MOMM*%
%LPD*%
G01*
G04 APERTURE LIST*
%ADD10C,0.150000*%
%ADD11C,0.120000*%
%ADD12C,0.127000*%
%ADD13C,0.200000*%
G04 APERTURE END LIST*
D10*
%TO.C,J3*%
X164766666Y-76712380D02*
X164766666Y-77426666D01*
X164719047Y-77569523D01*
X164623809Y-77664761D01*
X164480952Y-77712380D01*
X164385714Y-77712380D01*
X165147619Y-76712380D02*
X165766666Y-76712380D01*
X165433333Y-77093333D01*
X165576190Y-77093333D01*
X165671428Y-77140952D01*
X165719047Y-77188571D01*
X165766666Y-77283809D01*
X165766666Y-77521904D01*
X165719047Y-77617142D01*
X165671428Y-77664761D01*
X165576190Y-77712380D01*
X165290476Y-77712380D01*
X165195238Y-77664761D01*
X165147619Y-77617142D01*
%TO.C,RV1*%
X161002380Y-107335238D02*
X160526190Y-107668571D01*
X161002380Y-107906666D02*
X160002380Y-107906666D01*
X160002380Y-107525714D01*
X160050000Y-107430476D01*
X160097619Y-107382857D01*
X160192857Y-107335238D01*
X160335714Y-107335238D01*
X160430952Y-107382857D01*
X160478571Y-107430476D01*
X160526190Y-107525714D01*
X160526190Y-107906666D01*
X160002380Y-107049523D02*
X161002380Y-106716190D01*
X160002380Y-106382857D01*
X161002380Y-105525714D02*
X161002380Y-106097142D01*
X161002380Y-105811428D02*
X160002380Y-105811428D01*
X160145238Y-105906666D01*
X160240476Y-106001904D01*
X160288095Y-106097142D01*
%TO.C,J1*%
X164766666Y-66472380D02*
X164766666Y-67186666D01*
X164719047Y-67329523D01*
X164623809Y-67424761D01*
X164480952Y-67472380D01*
X164385714Y-67472380D01*
X165766666Y-67472380D02*
X165195238Y-67472380D01*
X165480952Y-67472380D02*
X165480952Y-66472380D01*
X165385714Y-66615238D01*
X165290476Y-66710476D01*
X165195238Y-66758095D01*
%TO.C,U1*%
X133188626Y-54826124D02*
X133188626Y-55635960D01*
X133236263Y-55731235D01*
X133283901Y-55778873D01*
X133379175Y-55826510D01*
X133569725Y-55826510D01*
X133665000Y-55778873D01*
X133712637Y-55731235D01*
X133760275Y-55635960D01*
X133760275Y-54826124D01*
X134760661Y-55826510D02*
X134189012Y-55826510D01*
X134474836Y-55826510D02*
X134474836Y-54826124D01*
X134379561Y-54969036D01*
X134284287Y-55064311D01*
X134189012Y-55111949D01*
%TO.C,J2*%
X164766666Y-61392380D02*
X164766666Y-62106666D01*
X164719047Y-62249523D01*
X164623809Y-62344761D01*
X164480952Y-62392380D01*
X164385714Y-62392380D01*
X165195238Y-61487619D02*
X165242857Y-61440000D01*
X165338095Y-61392380D01*
X165576190Y-61392380D01*
X165671428Y-61440000D01*
X165719047Y-61487619D01*
X165766666Y-61582857D01*
X165766666Y-61678095D01*
X165719047Y-61820952D01*
X165147619Y-62392380D01*
X165766666Y-62392380D01*
D11*
%TO.C,J3*%
X165708276Y-79505000D02*
X165795000Y-79505000D01*
X164405000Y-79505000D02*
X164491724Y-79505000D01*
X164405000Y-78135000D02*
X165100000Y-78135000D01*
X165795000Y-79505000D02*
X165795000Y-94380000D01*
X164405000Y-78820000D02*
X164405000Y-78135000D01*
X164405000Y-79505000D02*
X164405000Y-94380000D01*
X164405000Y-94380000D02*
X164705507Y-94380000D01*
X165494493Y-94380000D02*
X165795000Y-94380000D01*
%TO.C,RV1*%
X161680000Y-106030000D02*
X161680000Y-103120000D01*
X161680000Y-110360000D02*
X161680000Y-107330000D01*
X161680000Y-110360000D02*
X168520000Y-110360000D01*
X168520000Y-110360000D02*
X168520000Y-107330000D01*
X161680000Y-103120000D02*
X168520000Y-103120000D01*
X168520000Y-106030000D02*
X168520000Y-103120000D01*
%TO.C,J1*%
X164405000Y-68580000D02*
X164405000Y-67895000D01*
X164405000Y-69265000D02*
X164405000Y-72140000D01*
X164405000Y-69265000D02*
X164491724Y-69265000D01*
X165708276Y-69265000D02*
X165795000Y-69265000D01*
X164405000Y-72140000D02*
X164705507Y-72140000D01*
X165795000Y-69265000D02*
X165795000Y-72140000D01*
X164405000Y-67895000D02*
X165100000Y-67895000D01*
X165494493Y-72140000D02*
X165795000Y-72140000D01*
D12*
%TO.C,U1*%
X130830000Y-111070000D02*
X130830000Y-56670000D01*
X158730000Y-111070000D02*
X130830000Y-111070000D01*
X158730000Y-56670000D02*
X158730000Y-111070000D01*
X130830000Y-56670000D02*
X158730000Y-56670000D01*
D13*
X130280000Y-64060000D02*
G75*
G03*
X130280000Y-64060000I-100000J0D01*
G01*
D11*
%TO.C,J2*%
X164405000Y-65060000D02*
X164705507Y-65060000D01*
X164405000Y-63500000D02*
X164405000Y-62815000D01*
X164405000Y-64185000D02*
X164405000Y-65060000D01*
X165795000Y-64185000D02*
X165795000Y-65060000D01*
X165494493Y-65060000D02*
X165795000Y-65060000D01*
X164405000Y-64185000D02*
X164491724Y-64185000D01*
X165708276Y-64185000D02*
X165795000Y-64185000D01*
X164405000Y-62815000D02*
X165100000Y-62815000D01*
%TD*%
M02*
